<svg width="421" height="379" viewBox="0 0 421 379" fill="none" xmlns="http://www.w3.org/2000/svg">
<g clip-path="url(#clip0_107_366)">
<mask id="mask0_107_366" style="mask-type:luminance" maskUnits="userSpaceOnUse" x="0" y="0" width="421" height="379">
<path d="M420.965 0H0V378.765H420.965V0Z" fill="white"/>
</mask>
<g mask="url(#mask0_107_366)">
<path d="M237.011 37.7792C236.398 28.9018 243.295 24.7282 245.494 23.8022C251.472 21.2859 258.266 21.1121 264.601 22.5012C269.022 23.4709 273.425 25.2785 276.484 28.6134C279.287 31.6694 280.733 35.7776 281.24 39.8931C281.615 42.9354 281.513 46.0319 281.001 49.0541C279.638 57.0967 275.277 64.5963 268.961 69.7582C268.326 70.277 267.551 70.8022 266.752 70.6196C266.262 70.5073 265.871 70.1453 265.521 69.7849C262.564 66.7539 260.605 62.9172 258.507 59.2389C253.349 50.1926 246.827 41.5262 237.011 37.7792Z" fill="#010101" stroke="#010101" strokeWidth="1.21209" strokeLinecap="round" stroke-linejoin="round"/>
<path d="M269.841 60.7782C270.97 61.5765 272.701 61.5273 273.795 61.2784C277.18 60.5075 277.251 55.4652 276.612 53.8943C275.973 52.3226 274.835 50.9812 273.475 49.9663C272.933 49.5615 270.768 48.8108 269.064 49.9671C268.284 50.4964 267.807 51.3659 267.302 51.9323C266.743 49.3069 267.021 46.5862 267.269 43.9139C267.518 41.2417 265.884 32.3756 260.953 31.4561C257.974 30.9009 254.976 31.8003 251.946 31.8253C248.189 31.856 244.271 29.9571 240.819 31.4423C237.799 32.7417 237.475 34.7134 236.689 37.9052C234.966 44.8998 235.055 52.2451 236.092 59.3738C236.468 61.9588 236.985 64.5769 238.256 66.8588C240.458 70.8111 244.968 73.3597 249.489 73.2078C249.859 77.1576 250.228 81.1082 250.598 85.058C250.785 87.0523 251.058 89.2324 252.514 90.6078C254.024 92.034 256.319 92.1374 258.394 92.0914C262.047 92.0098 265.696 91.718 269.316 91.2179C270.117 91.1072 270.958 90.969 271.587 90.4607C272.712 89.5516 272.729 87.8717 272.631 86.4293C272.031 77.5915 270.806 68.8038 269.842 60.779L269.841 60.7782Z" fill="white" stroke="#010101" strokeWidth="1.21209" strokeLinecap="round" stroke-linejoin="round"/>
<path d="M260.581 71.2024C257.164 72.9147 253.269 73.6581 249.461 73.3268L260.581 71.2024Z" fill="white"/>
<path d="M260.581 71.2024C257.164 72.9147 253.269 73.6581 249.461 73.3268" stroke="#010101" strokeWidth="1.21209" strokeLinecap="round" stroke-linejoin="round"/>
<path d="M246.657 46.7573C245.84 48.4914 245.069 50.2465 244.341 52.0202C244.156 52.4727 243.97 52.9398 243.962 53.4287C243.949 54.1616 244.717 55.1822 247.294 56.5761" fill="white"/>
<path d="M246.657 46.7573C245.84 48.4914 245.069 50.2465 244.341 52.0202C244.156 52.4727 243.97 52.9398 243.962 53.4287C243.949 54.1616 244.717 55.1822 247.294 56.5761" stroke="#010101" strokeWidth="1.21209" strokeLinecap="round" stroke-linejoin="round"/>
<path d="M271.303 52.4958C272.203 52.5621 273.065 53.0413 273.597 53.7718C274.129 54.5023 274.32 55.4687 274.108 56.3463" fill="white"/>
<path d="M271.303 52.4958C272.203 52.5621 273.065 53.0413 273.597 53.7718C274.129 54.5023 274.32 55.4687 274.108 56.3463" stroke="#010101" strokeWidth="1.21209" strokeLinecap="round" stroke-linejoin="round"/>
<path d="M243.301 44.709C242.297 44.1353 237.937 44.0359 236.912 44.2969C235.887 44.5579 234.927 45.2731 234.616 46.284C234.497 46.6718 234.476 47.0815 234.464 47.4872C234.438 48.3631 234.465 49.2924 234.931 50.035C235.509 50.9586 236.63 51.3812 237.699 51.5962C239.088 51.8757 240.527 51.9081 241.928 51.6915C242.553 51.5945 243.229 51.4846 243.697 51.0588C245.122 49.7635 245.63 46.0375 243.303 44.709H243.301Z" fill="white" stroke="#010101" strokeWidth="1.21209" strokeLinecap="round" stroke-linejoin="round"/>
<path d="M257.895 44.709C256.891 44.1353 252.531 44.0359 251.506 44.2969C250.48 44.5579 249.521 45.2731 249.21 46.284C249.09 46.6718 249.069 47.0815 249.058 47.4872C249.032 48.3631 249.059 49.2924 249.524 50.035C250.103 50.9586 251.224 51.3812 252.293 51.5962C253.682 51.8757 255.121 51.9081 256.521 51.6915C257.147 51.5945 257.822 51.4846 258.291 51.0588C259.716 49.7635 260.224 46.0375 257.897 44.709H257.895Z" fill="white" stroke="#010101" strokeWidth="1.21209" strokeLinecap="round" stroke-linejoin="round"/>
<path d="M259.372 46.7573C263.172 46.7573 266.827 46.8737 270.595 47.2389C271.301 47.3076 272.113 47.5121 272.393 48.1625" stroke="#010101" strokeWidth="1.21209" strokeLinecap="round" stroke-linejoin="round"/>
<path d="M249.266 46.0923C247.295 44.4487 244.427 45.8959 244.441 45.8798L249.266 46.0923Z" fill="white"/>
<path d="M249.266 46.0923C247.295 44.4487 244.427 45.8959 244.441 45.8798" stroke="#010101" strokeWidth="1.21209" strokeLinecap="round" stroke-linejoin="round"/>
<path d="M129.402 94.4269C123.791 87.8978 119.035 82.5072 113.425 75.9789C112.563 74.9761 110.578 73.1676 109.459 74.3935C108.661 75.2662 109.701 78.7311 114.457 83.4373C109.738 78.2786 107.491 76.067 102.772 70.9083C102.176 70.2562 101.417 69.5443 100.626 69.7285C99.8154 69.9168 99.4688 71.019 99.695 71.9135C99.9213 72.808 100.547 73.5304 101.148 74.2084C104.598 78.0984 104.506 78.6681 107.957 82.5581C103.579 77.4221 103.314 76.6496 98.3876 72.147C97.5714 71.4012 96.4385 70.6247 95.5836 71.2C93.7356 72.8371 97.0131 76.088 99.5108 78.6689C100.942 80.1477 102.32 81.5391 105.819 84.9273C102.202 81.683 100.889 80.1654 97.2652 76.9308C96.5848 76.3231 95.8503 75.6896 94.9969 75.574C94.1436 75.4585 93.1934 76.1284 93.3008 77.0576C93.3687 77.6491 93.8148 78.1154 94.2309 78.5235C98.0894 82.3068 99.1811 84.0062 103.04 87.7895C100.2 85.0849 99.8922 84.7625 96.6454 82.7036C95.6814 82.0919 94.2406 81.6183 93.7186 82.6211C93.2362 83.548 94.1162 84.6801 94.9073 85.4073C102.695 92.5603 108.875 97.2705 116.662 104.423" fill="white"/>
<path d="M129.402 94.4269C123.791 87.8978 119.035 82.5072 113.425 75.9789C112.563 74.9761 110.578 73.1676 109.459 74.3935C108.661 75.2662 109.701 78.7311 114.457 83.4373C109.738 78.2786 107.491 76.067 102.772 70.9083C102.176 70.2562 101.417 69.5443 100.626 69.7285C99.8154 69.9168 99.4688 71.019 99.695 71.9135C99.9213 72.808 100.547 73.5304 101.148 74.2084C104.598 78.0984 104.506 78.6681 107.957 82.5581C103.579 77.4221 103.314 76.6496 98.3876 72.147C97.5714 71.4012 96.4385 70.6247 95.5836 71.2C93.7356 72.8371 97.0131 76.088 99.5108 78.6689C100.942 80.1477 102.32 81.5391 105.819 84.9273C102.202 81.683 100.889 80.1654 97.2652 76.9308C96.5848 76.3231 95.8503 75.6896 94.9969 75.574C94.1436 75.4585 93.1934 76.1284 93.3008 77.0576C93.3687 77.6491 93.8148 78.1154 94.2309 78.5235C98.0894 82.3068 99.1811 84.0062 103.04 87.7895C100.2 85.0849 99.8922 84.7625 96.6454 82.7036C95.6814 82.0919 94.2406 81.6183 93.7186 82.6211C93.2362 83.548 94.1162 84.6801 94.9073 85.4073C102.695 92.5603 108.875 97.2705 116.662 104.423" stroke="#010101" strokeWidth="1.21209" strokeLinecap="round" stroke-linejoin="round"/>
<path d="M114.457 83.4363C113.558 84.8819 112.78 86.4277 112.422 88.0915C112.064 89.7553 112.151 91.5549 112.916 93.0756" stroke="#010101" strokeWidth="1.21209" strokeLinecap="round" stroke-linejoin="round"/>
<path d="M138.434 352.821C133.559 345.621 127.493 339.061 121.447 332.812C115.4 326.564 108.093 321.298 99.738 318.894C97.6888 318.304 95.4844 317.894 93.4432 318.509C90.0866 319.523 88.0769 323.079 87.5549 326.546C86.7735 331.73 88.5383 336.94 90.5472 341.782C95.0578 352.657 104.279 365.964 112.21 375.971C123.864 375.971 143.391 375.874 156.71 375.973C159.409 375.993 148.176 364.452 138.434 352.821H138.434Z" fill="#55D087" stroke="#010101" strokeWidth="1.21209" strokeLinecap="round" stroke-linejoin="round"/>
<path d="M180.283 352.164C172.661 338.775 163.844 326.065 153.972 314.236C146.778 305.616 138.351 297.06 127.412 294.532C123.49 293.625 118.854 293.754 116.083 296.674C113.842 299.034 113.434 302.585 113.603 305.835C113.969 312.816 116.438 319.529 119.527 325.799C126.175 339.29 135.702 351.117 145.149 362.821C147.688 365.965 150.226 369.109 152.763 372.254C153.906 373.67 155.097 375.126 156.709 375.973C160.502 377.967 165.127 375.971 168.722 373.639C172.775 371.009 176.611 367.83 179.041 363.656C181.471 359.481 181.691 354.638 180.283 352.164Z" fill="#55D087" stroke="#010101" strokeWidth="1.21209" strokeLinecap="round" stroke-linejoin="round"/>
<path d="M133.916 375.626C122.305 357.158 105.956 335.825 91.6025 319.397" stroke="#010101" strokeWidth="1.21209" strokeLinecap="round" stroke-linejoin="round"/>
<path d="M116.077 350.063C109.026 348.064 99.1961 346.249 91.9761 344.988" stroke="#010101" strokeWidth="1.21209" strokeLinecap="round" stroke-linejoin="round"/>
<path d="M111.167 325.003C110.136 329.383 109.048 334.547 108.016 338.927" stroke="#010101" strokeWidth="1.21209" strokeLinecap="round" stroke-linejoin="round"/>
<path d="M167.255 360.474C150.817 339.91 133.968 317.299 117.53 296.734" stroke="#010101" strokeWidth="1.21209" strokeLinecap="round" stroke-linejoin="round"/>
<path d="M148.735 337.254C139.583 334.584 130.431 331.914 121.279 329.244" stroke="#010101" strokeWidth="1.21209" strokeLinecap="round" stroke-linejoin="round"/>
<path d="M148.735 309.862C146.805 317.352 145.313 322.085 143.39 329.547" stroke="#010101" strokeWidth="1.21209" strokeLinecap="round" stroke-linejoin="round"/>
<path d="M45.5258 219.928C40.6548 220.452 37.2085 225.213 36.162 229.999C34.2049 238.951 39.1987 248.992 47.6018 252.646C50.316 253.826 53.9507 254.167 55.8197 251.873C56.9906 250.434 57.0189 248.184 55.8844 246.716C54.7499 245.249 52.5641 244.711 50.8776 245.483C49.2688 246.22 48.2894 247.921 47.8854 249.645C46.7185 254.622 49.7633 259.904 54.1293 262.566C58.4952 265.227 63.8705 265.691 68.9669 265.279" stroke="#010101" strokeWidth="1.21209" strokeLinecap="round" stroke-linejoin="round"/>
<path d="M419.511 256.043L413.876 378.159L237.791 377.524L247.293 256.043H419.511Z" fill="white" stroke="#010101" strokeWidth="1.21209" strokeLinecap="round" stroke-linejoin="round"/>
<path d="M247.292 256.043H419.511L420.359 234.649L249.003 234.284L247.292 256.043Z" fill="#010101" stroke="#010101" strokeWidth="1.21209" strokeLinecap="round" stroke-linejoin="round"/>
<path d="M131.887 46.4951C125.102 38.4428 117.744 30.8737 109.886 23.8654C109.388 23.4217 108.839 22.9571 108.174 22.9022C107.439 22.8407 106.771 23.2924 106.176 23.7288C101.762 26.9691 97.5564 30.4931 93.5945 34.2732C82.9386 23.6658 72.2827 13.0583 61.626 2.45093" stroke="#010101" strokeWidth="1.21209" strokeLinecap="round" stroke-linejoin="round"/>
<path d="M78.6164 3.05034C72.7482 1.7033 66.7597 0.88393 60.7461 0.605957C61.1227 6.88379 61.3683 13.1697 61.4847 19.4572" stroke="#010101" strokeWidth="1.21209" strokeLinecap="round" stroke-linejoin="round"/>
<path d="M123.276 51.0311C125.584 51.0642 126.867 51.0133 129.205 51.2379C128.67 55.8528 129.366 61.4009 128.647 65.8534C128.568 66.3358 122.592 65.7693 122.592 65.7693C123.108 61.2312 123.471 57.0156 123.277 51.0303L123.276 51.0311Z" fill="#3C73FF" stroke="#010101" strokeWidth="1.21209" strokeLinecap="round" stroke-linejoin="round"/>
<path d="M110.716 34.384C110.549 45.4585 110.87 52.6357 110.67 65.8815C109.087 65.5639 106.734 65.9178 105.151 65.6003C105.278 57.211 105.664 43.8779 105.791 35.4887C105.821 33.5146 105.879 35.138 110.716 34.384Z" fill="#3C73FF" stroke="#010101" strokeWidth="1.21209" strokeLinecap="round" stroke-linejoin="round"/>
<path d="M94.6136 41.8716C94.4819 49.5118 94.1603 57.148 93.648 64.772C92.0407 64.7502 89.7321 65.0096 88.1693 64.6339C87.8687 57.9261 89.1963 41.9952 89.1963 41.9952C89.1963 41.9952 93.1922 41.9079 94.6136 41.8716Z" fill="#3C73FF" stroke="#010101" strokeWidth="1.21209" strokeLinecap="round" stroke-linejoin="round"/>
<path d="M75.6541 25.2629C76.2561 38.3308 76.4944 51.0845 76.2569 65.0227C74.3587 65.1593 72.3871 64.8167 70.2376 64.8563C69.6235 34.3552 69.7722 25.1837 69.7722 25.1837C69.7722 25.1837 72.9874 24.8887 75.6541 25.2629Z" fill="#3C73FF" stroke="#010101" strokeWidth="1.21209" strokeLinecap="round" stroke-linejoin="round"/>
<path d="M101.504 197.903L105.296 148.945L4.53394 150.935L0.605957 200.151L101.504 197.903Z" fill="#E3E3FF" stroke="#010101" strokeWidth="1.21209" strokeLinecap="round" stroke-linejoin="round"/>
<path d="M47.6343 168.266C62.6214 167.091 92.674 166.098 92.674 166.098L47.6343 168.266Z" fill="white"/>
<path d="M47.6343 168.266C62.6214 167.091 92.674 166.098 92.674 166.098" stroke="#010101" strokeWidth="1.21209" strokeLinecap="round" stroke-linejoin="round"/>
<path d="M47.2261 178.024C53.0756 177.54 64.7756 177.391 64.7756 177.391L47.2261 178.024Z" fill="white"/>
<path d="M47.2261 178.024C53.0756 177.54 64.7756 177.391 64.7756 177.391" stroke="#010101" strokeWidth="1.21209" strokeLinecap="round" stroke-linejoin="round"/>
<path d="M23.6658 160.491C20.0764 160.87 16.7642 162.944 14.5897 165.825C12.416 168.705 11.3388 172.334 11.2556 175.942C11.2136 177.771 11.4237 179.633 12.138 181.317C12.9364 183.2 14.3327 184.78 15.9205 186.068C18.4069 188.084 21.4388 189.456 24.6169 189.83C27.7958 190.204 31.1121 189.555 33.8345 187.873C36.9301 185.96 39.1612 182.752 40.0339 179.219C40.9074 175.687 40.4492 171.868 38.9123 168.57C38.0873 166.8 36.9423 165.151 35.411 163.939C31.9444 161.194 28.7978 160.162 23.665 160.491L23.6658 160.491Z" fill="white" stroke="#010101" strokeWidth="1.21209" strokeLinecap="round" stroke-linejoin="round"/>
<path d="M30.1875 169.545C29.4522 168.308 27.9371 167.636 26.5028 167.756C25.0685 167.875 23.7473 168.713 22.877 169.86C22.0617 170.934 21.6512 172.536 22.49 173.592C23.0314 174.273 23.9477 174.536 24.8156 174.6C25.6834 174.664 26.5618 174.567 27.4207 174.707C29.1225 174.983 30.6255 176.253 31.1839 177.884C31.5047 178.821 31.5047 179.924 30.9374 180.735C30.6336 181.17 30.1916 181.49 29.7286 181.75C27.1032 183.224 23.5429 182.789 21.3506 180.726" fill="white"/>
<path d="M30.1875 169.545C29.4522 168.308 27.9371 167.636 26.5028 167.756C25.0685 167.875 23.7473 168.713 22.877 169.86C22.0617 170.934 21.6512 172.536 22.49 173.592C23.0314 174.273 23.9477 174.536 24.8156 174.6C25.6834 174.664 26.5618 174.567 27.4207 174.707C29.1225 174.983 30.6255 176.253 31.1839 177.884C31.5047 178.821 31.5047 179.924 30.9374 180.735C30.6336 181.17 30.1916 181.49 29.7286 181.75C27.1032 183.224 23.5429 182.789 21.3506 180.726" stroke="#010101" strokeWidth="1.21209" strokeLinecap="round" stroke-linejoin="round"/>
<path d="M26.2277 182.9C26.2399 184.207 26.1809 185.515 26.0508 186.817L26.2277 182.9Z" fill="white"/>
<path d="M26.2277 182.9C26.2399 184.207 26.1809 185.515 26.0508 186.817" stroke="#010101" strokeWidth="1.21209" strokeLinecap="round" stroke-linejoin="round"/>
<path d="M27.2574 163.639C27.1863 164.901 27.1152 166.162 27.0449 167.423L27.2574 163.639Z" fill="white"/>
<path d="M27.2574 163.639C27.1863 164.901 27.1152 166.162 27.0449 167.423" stroke="#010101" strokeWidth="1.21209" strokeLinecap="round" stroke-linejoin="round"/>
<path d="M291.641 214.1L299.672 186.817L225.094 180.111L214.051 202.054L230.688 219.12L270.845 220.409L291.641 214.1Z" fill="#010101" stroke="#010101" strokeWidth="1.21209" strokeLinecap="round" stroke-linejoin="round"/>
<path d="M353.115 220.409C355.38 224.509 360.127 226.527 364.661 227.707C369.195 228.887 374.005 229.583 377.9 232.185C378.286 232.443 378.681 232.745 378.84 233.18C379.104 233.902 378.59 234.72 377.904 235.066C377.218 235.412 376.415 235.405 375.647 235.392C366.225 235.22 356.802 235.05 347.379 234.879C345.476 234.844 343.453 234.774 341.874 233.709C340.873 233.034 340.156 232.022 339.474 231.025C337.66 228.373 335.936 225.66 334.304 222.893" fill="white"/>
<path d="M353.115 220.409C355.38 224.509 360.127 226.527 364.661 227.707C369.195 228.887 374.005 229.583 377.9 232.185C378.286 232.443 378.681 232.745 378.84 233.18C379.104 233.902 378.59 234.72 377.904 235.066C377.218 235.412 376.415 235.405 375.647 235.392C366.225 235.22 356.802 235.05 347.379 234.879C345.476 234.844 343.453 234.774 341.874 233.709C340.873 233.034 340.156 232.022 339.474 231.025C337.66 228.373 335.936 225.66 334.304 222.893" stroke="#010101" strokeWidth="1.21209" strokeLinecap="round" stroke-linejoin="round"/>
<path d="M276.368 82.1235C265.983 86.0467 254.997 87.4713 244.805 83.0682C241.466 94.1564 241.016 104.601 240.359 116.162C239.559 130.199 238.76 144.256 239.133 158.311C239.386 167.834 240.177 177.342 241.502 186.776C256.038 188.179 270.624 189.067 285.223 189.438C293.136 176.557 293.857 160.558 292.782 145.478C291.287 124.52 285.603 103.322 276.367 82.1235H276.368Z" fill="white" stroke="#010101" strokeWidth="1.21209" strokeLinecap="round" stroke-linejoin="round"/>
<path d="M266.405 89.9892C264.638 87.923 262.644 86.0507 260.471 84.416C258.233 85.477 256.121 86.8063 254.226 88.5703C255.316 90.6058 256.404 92.6405 257.493 94.676C257.787 95.2238 258.083 95.7814 258.211 96.3899C258.426 97.4153 258.14 98.4706 257.891 99.4888C256.559 104.946 249.809 168.626 249.809 168.626C249.809 168.626 255.179 177.135 261.353 189.778C267.804 179.211 272.854 170.542 272.977 169.897C273.187 168.806 261.693 97.1519 261.887 95.9471C262.207 93.9738 266.564 91.051 266.405 89.9892H266.405Z" fill="#3C73FF" stroke="#010101" strokeWidth="1.21209" strokeLinecap="round" stroke-linejoin="round"/>
<path d="M286.921 189.595C271.344 189.33 255.78 188.322 240.299 186.573L286.921 189.595Z" fill="white"/>
<path d="M286.921 189.595C271.344 189.33 255.78 188.322 240.299 186.573" stroke="#010101" strokeWidth="1.21209" strokeLinecap="round" stroke-linejoin="round"/>
<path d="M254.999 219.596C237.484 229.504 220.051 237.415 204.167 249.369C215.155 272.103 229.232 294.309 241.599 316.251C232.669 326.068 225.927 334.778 216.346 344.988C200.621 317.344 183.917 287.68 168.191 260.036C166.179 256.499 164.132 252.866 163.474 248.851C162.423 242.434 165.129 235.859 169.258 230.836C173.603 225.551 201.824 201.925 214.615 193.479" fill="#010101"/>
<path d="M254.999 219.596C237.484 229.504 220.051 237.415 204.167 249.369C215.155 272.103 229.232 294.309 241.599 316.251C232.669 326.068 225.927 334.778 216.346 344.988C200.621 317.344 183.917 287.68 168.191 260.036C166.179 256.499 164.132 252.866 163.474 248.851C162.423 242.434 165.129 235.859 169.258 230.836C173.603 225.551 201.824 201.925 214.615 193.479" stroke="#010101" strokeWidth="1.21209" strokeLinecap="round" stroke-linejoin="round"/>
<path d="M237.313 315.108C241.473 319.391 245.76 323.552 250.164 327.582C250.355 327.758 250.4 328.039 250.275 328.267C248.993 330.599 247.92 333.046 247.076 335.57C246.95 335.948 246.497 336.078 246.186 335.83C244.92 334.822 243.555 333.939 242.116 333.198C242.406 335.399 242.898 337.573 243.74 339.732C243.997 340.392 244.029 341.119 243.787 341.786L234.609 367.089C234.174 368.289 232.847 368.906 231.649 368.466L229.788 367.78C229.318 367.607 228.824 367.418 228.508 367.03C228.265 366.731 228.156 366.348 228.057 365.977C226.821 361.324 226.302 356.512 225.261 351.812C224.219 347.112 222.585 342.41 219.468 338.742" fill="white"/>
<path d="M237.313 315.108C241.473 319.391 245.76 323.552 250.164 327.582C250.355 327.758 250.4 328.039 250.275 328.267C248.993 330.599 247.92 333.046 247.076 335.57C246.95 335.948 246.497 336.078 246.186 335.83C244.92 334.822 243.555 333.939 242.116 333.198C242.406 335.399 242.898 337.573 243.74 339.732C243.997 340.392 244.029 341.119 243.787 341.786L234.609 367.089C234.174 368.289 232.847 368.906 231.649 368.466L229.788 367.78C229.318 367.607 228.824 367.418 228.508 367.03C228.265 366.731 228.156 366.348 228.057 365.977C226.821 361.324 226.302 356.512 225.261 351.812C224.219 347.112 222.585 342.41 219.468 338.742" stroke="#010101" strokeWidth="1.21209" strokeLinecap="round" stroke-linejoin="round"/>
<path d="M207.641 359.939C205.323 365.358 203.163 370.844 201.164 376.388C201.03 376.76 200.662 376.988 200.267 376.948C197.838 376.7 195.387 376.652 192.95 376.806C192.362 376.843 191.894 376.309 192.046 375.74C192.43 374.301 192.683 372.829 192.801 371.345C190.677 372.58 188.679 374.593 186.868 376.499C186.71 376.666 186.494 376.761 186.264 376.767L153.724 377.484C152.45 377.546 151.368 376.558 151.313 375.283L151.228 373.301C151.206 372.801 151.191 372.273 151.427 371.831C151.609 371.492 151.919 371.244 152.225 371.009C156.041 368.075 165.193 365.741 169.128 362.967C173.062 360.194 176.772 356.874 178.955 352.583" fill="white"/>
<path d="M207.641 359.939C205.323 365.358 203.163 370.844 201.164 376.388C201.03 376.76 200.662 376.988 200.267 376.948C197.838 376.7 195.387 376.652 192.95 376.806C192.362 376.843 191.894 376.309 192.046 375.74C192.43 374.301 192.683 372.829 192.801 371.345C190.677 372.58 188.679 374.593 186.868 376.499C186.71 376.666 186.494 376.761 186.264 376.767L153.724 377.484C152.45 377.546 151.368 376.558 151.313 375.283L151.228 373.301C151.206 372.801 151.191 372.273 151.427 371.831C151.609 371.492 151.919 371.244 152.225 371.009C156.041 368.075 165.193 365.741 169.128 362.967C173.062 360.194 176.772 356.874 178.955 352.583" stroke="#010101" strokeWidth="1.21209" strokeLinecap="round" stroke-linejoin="round"/>
<path d="M356.455 230.596C358.771 231.026 361.074 231.533 363.34 232.179C363.758 232.297 364.183 232.426 364.536 232.679C364.889 232.932 365.164 233.336 365.148 233.77C365.12 234.531 364.265 234.991 363.507 235.058C362.748 235.125 361.958 234.965 361.238 235.21" fill="white"/>
<path d="M356.455 230.596C358.771 231.026 361.074 231.533 363.34 232.179C363.758 232.297 364.183 232.426 364.536 232.679C364.889 232.932 365.164 233.336 365.148 233.77C365.12 234.531 364.265 234.991 363.507 235.058C362.748 235.125 361.958 234.965 361.238 235.21" stroke="#010101" strokeWidth="1.21209" strokeLinecap="round" stroke-linejoin="round"/>
<path d="M255.025 219.603C226.987 273.694 202.502 311.709 172.419 357.129C184.435 360.975 194.723 365.102 206.369 369.329C274.458 271.25 262.71 290.054 275.182 272.09C285.556 257.145 296.806 240.377 304.654 223.963C307.302 218.425 309.964 212.745 310.636 206.642C311.309 200.541 309.642 193.835 304.904 189.932" fill="#010101"/>
<path d="M255.025 219.603C226.987 273.694 202.502 311.709 172.419 357.129C184.435 360.975 194.723 365.102 206.369 369.329C274.458 271.25 262.71 290.054 275.182 272.09C285.556 257.145 296.806 240.377 304.654 223.963C307.302 218.425 309.964 212.745 310.636 206.642C311.309 200.541 309.642 193.835 304.904 189.932" stroke="#010101" strokeWidth="1.21209" strokeLinecap="round" stroke-linejoin="round"/>
<path d="M276.453 82.6094C275.695 115.337 277.834 147.747 280.565 180.37C281.152 187.379 282.048 194.923 286.802 200.108C292.391 206.206 302.729 206.753 310.981 207.315C311.557 190.546 310.454 179.15 310.077 164.866C311.177 169.781 323.361 205.29 328.904 226.415C339.663 225.258 348.017 222.593 357.501 219.799C347.343 181.09 339.604 153.909 328.75 120.068C325.184 108.949 319.771 97.7524 310.332 90.8775C301.154 84.1932 288.086 83.293 276.453 82.6094Z" fill="#FF5D5D" stroke="#010101" strokeWidth="1.21209" strokeLinecap="round" stroke-linejoin="round"/>
<path d="M309.691 164.187C306.761 155.69 303.831 147.193 300.901 138.696L309.691 164.187Z" fill="white"/>
<path d="M309.691 164.187C306.761 155.69 303.831 147.193 300.901 138.696" stroke="#010101" strokeWidth="1.21209" strokeLinecap="round" stroke-linejoin="round"/>
<path d="M179.145 122.054C176.082 125.794 171.688 131.549 171.688 131.549C171.688 131.549 134.327 93.7957 126.2 84.5716C120.457 92.6191 114.35 97.7527 109.531 106.385C119.757 120.138 132.251 136.036 145.138 147.334C154.314 155.377 163.835 162.668 176.036 162.714C186.234 162.752 209.998 146.519 217.466 133.28C220.412 154.75 220.247 170.32 218.334 178.847C217.014 184.728 213.465 193.679 208.852 197.557C216.096 199.595 223.85 199.794 231.189 198.13C236.186 196.997 241.333 194.721 243.888 190.279C245.936 186.718 245.974 182.391 245.957 178.282C245.818 145.728 245.448 114.417 244.7 82.3527C244.235 81.5543 229.523 80.6178 219.547 84.4165C210.307 87.9348 190.772 107.859 179.144 122.054H179.145Z" fill="#FF5D5D" stroke="#010101" strokeWidth="1.21209" strokeLinecap="round" stroke-linejoin="round"/>
<path d="M259.85 84.3875C257.404 81.9302 254.669 79.7606 251.721 77.9376C250.95 77.4608 250.126 76.9962 249.221 76.9413C247.475 76.8362 245.807 79.4907 244.735 80.8725C244.439 81.2547 244.139 81.6684 244.086 82.15C244.026 82.6987 244.296 83.2247 244.566 83.7055C246.224 86.6614 248.424 88.2 250.661 90.7446C251.234 91.3959 251.934 92.0811 252.801 92.0674C253.452 92.0569 254.022 91.6456 254.522 91.227C256.601 89.4848 258.311 87.3022 259.851 84.3867L259.85 84.3875Z" fill="white" stroke="#010101" strokeWidth="1.21209" strokeLinecap="round" stroke-linejoin="round"/>
<path d="M265.138 90.8641C263.333 88.6387 261.376 86.3098 259.64 84.1305C262.345 82.0699 265.138 79.5367 268.906 77.6498C270.182 77.0107 271.675 76.3618 272.981 76.9379C273.75 77.2781 276.904 80.4708 277.926 83.139C275.228 85.8832 270.262 89.4233 267.441 91.2414C266.69 91.7255 265.7 91.5582 265.138 90.8641Z" fill="white" stroke="#010101" strokeWidth="1.21209" strokeLinecap="round" stroke-linejoin="round"/>
<path d="M301.704 232.222L285.598 259.134" stroke="white" strokeWidth="1.21209" strokeLinecap="round" stroke-linejoin="round"/>
<path d="M220.791 279.63L198.421 316.251" stroke="white" strokeWidth="1.21209" strokeLinecap="round" stroke-linejoin="round"/>
<path d="M391.451 201.825C390.284 200.864 389.116 199.904 387.949 198.943C388.093 199.025 388.237 199.106 391.451 201.825Z" stroke="#010101" strokeWidth="1.21209" strokeLinecap="round" stroke-linejoin="round"/>
<path d="M266.473 302.722C263.859 303.843 261.472 305.69 260.166 308.218C258.861 310.746 258.797 313.996 260.41 316.339C261.822 318.391 264.269 319.496 266.701 320.034C270.259 320.821 274.571 320.294 276.6 317.267C278.256 314.797 277.836 311.441 276.619 308.729C275.649 306.567 274.179 304.577 272.176 303.312C270.173 302.048 267.945 302.091 266.473 302.722H266.473Z" fill="white" stroke="#010101" strokeWidth="1.21209" strokeLinecap="round" stroke-linejoin="round"/>
<path d="M275.497 306.682L301.792 278.214" stroke="#010101" strokeWidth="1.21209" strokeLinecap="round" stroke-linejoin="round"/>
<path d="M301.792 278.214C304.014 284.964 315.254 282.974 316.559 276.524C317.228 273.221 315.832 269.342 312.047 268.258C302.224 265.446 300.472 274.204 301.792 278.214Z" fill="#FF5D5D" stroke="#010101" strokeWidth="1.21209" strokeLinecap="round" stroke-linejoin="round"/>
<path d="M316.561 276.524C316.561 276.524 343.277 297.277 348.372 301.473" stroke="#010101" strokeWidth="1.21209" strokeLinecap="round" stroke-linejoin="round"/>
<path d="M348.625 302.072C347.929 303.323 347.628 304.767 348.029 306.141C349.014 309.522 352.754 311.934 356.196 311.19C359.639 310.447 361.729 306.069 360.585 302.738C359.441 299.407 352.42 295.248 348.625 302.072Z" fill="#010101" stroke="#010101" strokeWidth="1.21209" strokeLinecap="round" stroke-linejoin="round"/>
<path d="M360.585 302.737C366.467 298.098 372.349 293.46 378.231 288.821" stroke="#010101" strokeWidth="1.21209" strokeLinecap="round" stroke-linejoin="round"/>
<path d="M383.874 278.102C377.406 275.765 374.282 283.592 377.481 287.139C379.091 288.925 381.469 290.178 383.837 289.763C386.205 289.349 388.244 287.154 388.139 284.752C388.025 282.145 386.538 279.064 383.874 278.101V278.102Z" fill="white" stroke="#010101" strokeWidth="1.21209" strokeLinecap="round" stroke-linejoin="round"/>
<path d="M331.942 355.653C329.849 355.678 327.742 355.473 325.737 354.871C322.635 353.94 319.802 352.016 317.983 349.338C316.163 346.66 315.42 343.222 316.194 340.077C317.042 336.634 318.63 333.409 321.449 331.258C323.313 329.836 325.717 328.95 328.202 328.55C327.874 326.159 327.546 323.769 327.219 321.379C323.307 321.966 319.511 323.341 316.581 325.575C312.267 328.866 309.838 333.802 308.54 339.071C307.356 343.882 308.493 349.142 311.277 353.241C314.062 357.339 318.398 360.283 323.143 361.708C326.21 362.629 329.436 362.942 332.638 362.904C334.908 362.877 337.198 362.662 339.391 362.098C338.639 359.698 337.888 357.299 337.136 354.899C335.471 355.44 333.698 355.632 331.942 355.653Z" fill="#FF5D5D" stroke="#010101" strokeWidth="1.21209" strokeLinecap="round" stroke-linejoin="round"/>
<path d="M338.095 354.546C337.781 354.679 337.459 354.793 337.135 354.899C337.887 357.299 338.638 359.698 339.39 362.098C340.297 361.865 341.189 361.579 342.054 361.211C348.268 358.571 352.185 352.217 353.016 345.477C350.384 345.437 347.754 345.295 345.133 345.044C344.398 349.151 341.915 352.923 338.095 354.546Z" fill="#010101" stroke="#010101" strokeWidth="1.21209" strokeLinecap="round" stroke-linejoin="round"/>
<path d="M352.434 337.234C349.854 328.075 341.668 322.31 336.213 321.41C333.382 320.944 330.264 320.922 327.217 321.38C327.545 323.771 327.873 326.161 328.201 328.551C330.255 328.221 332.365 328.222 334.278 328.537C337.842 329.125 343.191 332.893 344.877 338.877C345.438 340.868 345.499 342.997 345.133 345.044C347.753 345.295 350.384 345.436 353.015 345.477C353.356 342.717 353.183 339.894 352.433 337.233L352.434 337.234Z" fill="#3C73FF" stroke="#010101" strokeWidth="1.21209" strokeLinecap="round" stroke-linejoin="round"/>
<path d="M366.818 326.183C364.564 326.152 362.309 326.224 360.061 326.4C360.023 328.369 359.986 330.338 359.948 332.307C362.199 332.389 366.698 332.117 366.698 332.117C366.698 332.117 367.311 327.634 366.818 326.183H366.818Z" fill="#3C73FF" stroke="#010101" strokeWidth="1.21209" strokeLinecap="round" stroke-linejoin="round"/>
<path d="M366.347 338.912C364.093 338.881 361.838 338.953 359.591 339.128C359.553 341.097 359.516 343.067 359.478 345.035C361.728 345.118 366.227 344.845 366.227 344.845C366.227 344.845 366.84 340.363 366.348 338.912H366.347Z" fill="#FF5D5D" stroke="#010101" strokeWidth="1.21209" strokeLinecap="round" stroke-linejoin="round"/>
<path d="M366.347 351.64C364.093 351.609 361.838 351.681 359.591 351.856C359.553 353.826 359.516 355.795 359.478 357.763C361.728 357.846 366.227 357.573 366.227 357.573C366.227 357.573 366.84 353.091 366.348 351.64H366.347Z" fill="#010101" stroke="#010101" strokeWidth="1.21209" strokeLinecap="round" stroke-linejoin="round"/>
<path d="M372.204 328.751C378.614 328.496 385.035 328.532 391.442 328.858" stroke="#010101" strokeWidth="1.21209" strokeLinecap="round" stroke-linejoin="round"/>
<path d="M371.446 341.567C378.114 341.649 384.783 341.731 391.451 341.813" stroke="#010101" strokeWidth="1.21209" strokeLinecap="round" stroke-linejoin="round"/>
<path d="M370.975 354.768C377.688 354.772 384.399 354.775 391.112 354.779" stroke="#010101" strokeWidth="1.21209" strokeLinecap="round" stroke-linejoin="round"/>
<path d="M143.602 189.476C142.953 189.389 142.268 189.702 141.911 190.249C141.554 190.796 141.542 191.549 141.882 192.107C142.488 193.101 144.151 193.148 144.839 192.208C145.526 191.269 145.028 189.668 143.601 189.475L143.602 189.476Z" fill="#010101"/>
<path d="M46.06 98.3766C45.4119 98.2893 44.7267 98.602 44.3695 99.1491C44.0124 99.6961 44.0003 100.449 44.3405 101.008C44.9465 102.002 46.6095 102.048 47.2972 101.109C47.9848 100.17 47.4862 98.5689 46.0592 98.3758L46.06 98.3766Z" fill="#010101"/>
<path d="M326.343 61.1279C327.881 59.7074 329.421 58.2868 330.959 56.8662" stroke="#010101" strokeWidth="1.21209" strokeLinecap="round" stroke-linejoin="round"/>
<path d="M401.13 95.202C399.924 95.0388 398.648 95.6222 397.983 96.6411C397.317 97.6601 397.295 99.0629 397.93 100.102C399.058 101.953 402.155 102.04 403.436 100.291C404.716 98.5425 403.788 95.5616 401.131 95.2028L401.13 95.202Z" fill="#010101"/>
</g>
</g>
<defs>
<clipPath id="clip0_107_366">
<rect width="421" height="378.981" fill="white"/>
</clipPath>
</defs>
</svg>
