<svg width="800" height="613" viewBox="0 0 800 613" fill="none" xmlns="http://www.w3.org/2000/svg">
<g clip-path="url(#clip0_9_312)">
<mask id="mask0_9_312" style="mask-type:luminance" maskUnits="userSpaceOnUse" x="0" y="0" width="800" height="613">
<path d="M799.836 0H0V612.135H799.836V0Z" fill="white"/>
</mask>
<g mask="url(#mask0_9_312)">
<path d="M683.74 156.313C544.401 157.69 335.761 154.545 196.424 155.923C198.88 143.101 198.197 132.709 200.494 120.713C260.854 122.667 612.916 121.676 687.715 121.676C685.531 133.081 684.702 141.281 683.74 156.313Z" fill="#010101" stroke="#010101" stroke-width="1.79105" stroke-linecap="round" stroke-linejoin="round"/>
<path d="M196.424 155.925C355.858 155.925 569.791 156.314 683.74 156.314C668.843 285.716 661.485 365.735 646.299 456.143C482.151 455.313 328.144 456.146 163.993 456.143C171.373 412.205 190.012 211.617 196.423 155.926L196.424 155.925Z" fill="white" stroke="#010101" stroke-width="1.79105" stroke-linecap="round" stroke-linejoin="round"/>
<path d="M219.287 198.418C271.189 198.418 343.297 197.121 404.795 198.418C398.948 250.77 394.028 291.557 389.557 342.311C327.482 342.311 265.642 342.967 203.583 345.741C203.933 341.772 214.032 245.46 219.287 198.418Z" fill="#FF5D5D" stroke="#010101" stroke-width="1.79105" stroke-linecap="round" stroke-linejoin="round"/>
<path d="M319.831 286.294C312.827 266.768 286.08 238.199 279.012 230.868C278.123 229.945 276.624 230.068 275.897 231.124C254.375 262.328 232.898 296.654 227.127 308.679C227.084 308.769 228.483 308.681 228.584 308.681C262.612 308.699 286.917 307.808 309.23 307.808C310.118 307.808 311.01 307.551 311.788 307.124C312.641 306.657 313.306 305.907 313.809 305.076C317.969 298.207 321.622 291.287 319.831 286.294Z" fill="white" stroke="#010101" stroke-width="1.79105" stroke-linecap="round" stroke-linejoin="round"/>
<path d="M292.386 307.942C302.675 290.663 323.938 265.422 330.46 257.708C331.309 256.703 332.861 256.751 333.642 257.809C339.495 265.743 359.996 292.604 368.868 306.336C369.521 307.347 368.789 308.681 367.585 308.678C335.826 308.639 313.587 307.94 292.386 307.94V307.942Z" fill="white" stroke="#010101" stroke-width="1.79105" stroke-linecap="round" stroke-linejoin="round"/>
<path d="M309.334 219.588C306.248 222.673 305.605 227.568 306.928 231.726C307.476 233.448 308.311 235.12 309.622 236.364C312.284 238.892 316.34 239.198 319.999 238.893C322.068 238.721 324.162 238.387 326.026 237.472C330.21 235.418 331.736 230.411 331.524 225.754C331.097 216.427 317.218 211.705 309.334 219.589V219.588Z" fill="white" stroke="#010101" stroke-width="1.79105" stroke-linecap="round" stroke-linejoin="round"/>
<path d="M59.427 480.718C51.501 473.035 43.6001 465.354 35.6312 457.809C36.6139 448.64 35.8831 446.284 34.3942 438.196C34.098 436.587 33.1727 434.636 31.5392 434.767C29.7816 434.905 29.2968 437.181 28.9255 438.9C28.1386 442.547 27.7494 443.606 26.7201 445.001C21.3649 447.934 16.9828 450.314 12.9291 454.875C11.7112 456.245 5.33146 455.957 5.02698 457.762C4.75713 459.366 9.82937 463.686 10.8527 464.952C21.1536 477.698 30.9064 488.843 39.9094 500.419C43.6276 505.2 66.0037 487.093 59.4258 480.716L59.427 480.718Z" fill="white" stroke="#010101" stroke-width="1.79105" stroke-linecap="round" stroke-linejoin="round"/>
<path d="M38.6636 431.415C37.9447 430.8 37.2462 430.162 36.568 429.502L31.7227 431.582C34.1155 433.348 35.2916 434.892 37.4838 436.973C37.7394 435.512 38.2385 433.26 38.6636 431.415Z" fill="white" stroke="#010101" stroke-width="1.79105" stroke-linecap="round" stroke-linejoin="round"/>
<path d="M3.98566 462.517C2.92536 463.785 1.88297 465.051 0.895508 466.311C1.82446 467.419 4.76655 470.512 6.0573 471.364C7.26207 470.207 8.45849 469.014 9.64894 467.807C8.77013 466.986 7.65372 465.943 6.53849 464.897L3.98566 462.516V462.517Z" fill="#010101" stroke="#010101" stroke-width="1.79105" stroke-linecap="round" stroke-linejoin="round"/>
<path d="M9.65352 467.803C15.2475 462.136 32.5669 443.035 37.4851 436.973C35.7896 435.486 31.7239 431.582 31.7239 431.582C26.7293 437.353 9.07203 456.44 3.99023 462.513C4.75919 463.232 5.64874 464.064 6.53949 464.898L9.65352 467.803Z" fill="#FF4B61" stroke="#010101" stroke-width="1.79105" stroke-linecap="round" stroke-linejoin="round"/>
<path d="M39.403 428.285L36.5684 429.502C37.2466 430.162 37.9451 430.8 38.6639 431.415C39.0663 429.668 39.403 428.285 39.403 428.285Z" fill="#010101" stroke="#010101" stroke-width="1.79105" stroke-linecap="round" stroke-linejoin="round"/>
<path d="M5.69647 451.07C7.28692 447.399 11.2021 442.164 13.5734 440.11C14.4761 439.328 15.3072 438.241 16.4176 437.739C17.5316 437.235 18.7866 437.379 19.9579 437.626C23.3884 438.351 25.0194 438.135 27.8409 440.354C31.669 443.364 29.5281 447.679 26.4069 446.342C22.4869 444.663 20.7364 444.702 17.6451 443.035C19.9125 444.178 20.2373 443.863 22.1645 444.552C24.0916 445.24 28.2528 447.321 28.4821 449.194C29.1125 454.34 23.7776 451.2 20.771 450.701C17.7705 450.202 16.0582 449.355 13.14 448.471C15.5902 449.219 16.7615 449.82 19.2116 450.568C20.303 450.902 21.4528 451.687 22.3519 452.432C24.5525 454.258 24.543 457.125 19.3621 456.57C15.7884 456.186 14.0916 455.599 10.5036 453.711C12.6493 454.308 13.4743 455.616 15.5066 456.562C16.697 457.117 21.2654 461.668 16.2994 462.201C13.3931 462.512 9.98065 461.214 6.90363 459.54C3.71557 457.807 4.14781 454.642 5.69647 451.068V451.07Z" fill="white" stroke="#010101" stroke-width="1.79105" stroke-linecap="round" stroke-linejoin="round"/>
<path d="M271.561 565.114C273.604 482.585 278.837 400.134 287.242 318.008C215.314 324.029 130.766 334.941 59.8915 343.62C55.1834 360.921 31.9631 504.894 20.1494 577.576C45.9942 579.647 70.6008 579.698 103.039 577.664C164.491 575.155 225.726 568.95 271.561 565.114Z" fill="#E3E3FF" stroke="#010101" stroke-width="1.79105" stroke-linecap="round" stroke-linejoin="round"/>
<path d="M209.866 351.25C208.704 348.928 207.451 346.653 206.107 344.431C205.158 342.861 204.142 341.291 202.735 340.112C200.883 338.561 198.498 337.809 196.143 337.269C191.964 336.312 187.602 335.911 183.38 336.659C179.004 337.435 174.936 339.41 171.061 341.588C167.643 343.509 164.265 345.656 161.738 348.654C159.472 351.345 157.99 354.607 156.809 357.92C153.525 367.136 152.345 377.085 148.15 385.924C145.865 390.739 142.728 395.121 140.541 399.982C137.421 406.916 136.331 414.749 137.44 422.271C144.493 421.814 151.546 421.358 158.599 420.9C162.661 420.638 166.782 420.363 170.622 419.014C174.462 417.665 178.052 415.081 179.688 411.354C180.94 408.503 180.947 405.287 181.065 402.177C181.266 396.93 181.843 391.705 182.42 386.487C182.892 382.225 183.391 377.864 185.279 374.013C190.269 363.841 203.496 359.82 209.867 351.251L209.866 351.25Z" fill="#010101" stroke="#010101" stroke-width="1.79105" stroke-linecap="round" stroke-linejoin="round"/>
<path d="M223.411 538.396C239.867 506.86 262.885 478.767 290.568 456.429C298.768 449.812 307.798 443.513 318.206 441.877C324.828 440.836 332.375 442.136 336.624 447.321C343.148 455.279 338.811 467.138 334.014 476.242C317.353 507.869 297.781 537.961 277.396 567.202C268.438 565.303 259.436 563.391 250.889 560.105C242.342 556.819 234.196 552.072 228.092 545.247C225.251 542.069 222.852 538.45 223.412 538.398L223.411 538.396Z" fill="#55D087" stroke="#010101" stroke-width="1.79105" stroke-linecap="round" stroke-linejoin="round"/>
<path d="M348.823 568.021C364.748 544.454 380.118 523.799 387.328 496.284C389.314 488.698 390.011 479.247 383.861 474.381C377.704 469.509 368.679 472.369 361.656 475.877C323.416 494.977 292.544 528.404 276.931 568.332C306.924 568.332 324.844 568.79 348.823 568.021Z" fill="#55D087" stroke="#010101" stroke-width="1.79105" stroke-linecap="round" stroke-linejoin="round"/>
<path d="M346.321 523.124C343.46 514.808 340.601 506.492 337.74 498.177L346.321 523.124Z" fill="#55D087"/>
<path d="M346.321 523.124C343.46 514.808 340.601 506.492 337.74 498.177" stroke="#010101" stroke-width="1.79105" stroke-linecap="round" stroke-linejoin="round"/>
<path d="M331.316 546.333C341.703 543.86 351.98 540.93 362.109 537.555L331.316 546.333Z" fill="#55D087"/>
<path d="M331.316 546.333C341.703 543.86 351.98 540.93 362.109 537.555" stroke="#010101" stroke-width="1.79105" stroke-linecap="round" stroke-linejoin="round"/>
<path d="M294.75 482.936C292.708 477.294 290.667 471.652 288.626 466.011L294.75 482.936Z" fill="#55D087"/>
<path d="M294.75 482.936C292.708 477.294 290.667 471.652 288.626 466.011" stroke="#010101" stroke-width="1.79105" stroke-linecap="round" stroke-linejoin="round"/>
<path d="M279.924 505.507C289.573 505.839 299.265 504.842 308.645 502.556L279.924 505.507Z" fill="#55D087"/>
<path d="M279.924 505.507C289.573 505.839 299.265 504.842 308.645 502.556" stroke="#010101" stroke-width="1.79105" stroke-linecap="round" stroke-linejoin="round"/>
<path d="M316.625 567.655C328.613 549.262 340.611 530.852 353.811 513.31C362.13 502.253 370.922 491.547 378.882 480.23" stroke="#010101" stroke-width="1.79105" stroke-linecap="round" stroke-linejoin="round"/>
<path d="M261.699 529.588C282.812 501.164 304.275 473 326.079 445.103" stroke="#010101" stroke-width="1.79105" stroke-linecap="round" stroke-linejoin="round"/>
<path d="M40.5048 454.138C55.9711 469.079 72.1574 483.275 88.9872 496.66C93.9699 485.448 99.0445 474.278 104.21 463.15C108.605 453.68 113.179 444.071 120.319 436.454C137.707 417.898 165.562 415.254 190.507 410.321C222.126 404.069 252.652 392.316 280.298 375.748C283.692 373.714 287.107 371.553 289.607 368.488C294.603 362.366 302.723 338.061 313.213 312.468C323.397 314.384 338.637 316.301 348.82 318.217C341.509 345.003 331.467 371.043 318.903 395.804C315.601 402.31 312.005 408.883 306.479 413.648C302.075 417.445 296.688 419.883 291.338 422.162C273.088 429.939 254.313 436.485 235.183 441.74C235.255 471.293 236.702 497.694 238.509 531.177C204.586 532.479 167.595 534.111 133.83 537.625C135.843 517.306 135.582 497.202 137.014 482.746C132.682 492.294 109.324 533.607 93.8027 534.443C85.1126 534.911 76.6923 532.002 69.1198 527.714C48.1192 515.824 30.9359 497.623 15.749 478.867C24.2565 469.794 31.2069 463.057 40.5013 454.138H40.5048Z" fill="#3C73FF" stroke="#010101" stroke-width="1.79105" stroke-linecap="round" stroke-linejoin="round"/>
<path d="M636.706 396.036C643.214 338.208 652.794 264.566 660.333 206.863C627.757 206.863 604.343 207.135 576.603 207.86C570.154 265.669 561.3 338.013 557.459 397.978C582.394 398.206 611.218 397.656 636.706 396.037V396.036Z" fill="white" stroke="#010101" stroke-width="1.79105" stroke-linecap="round" stroke-linejoin="round"/>
<path d="M643.121 262.875C638.168 265.268 599.693 265.048 581.12 265.011C581.064 250.482 582.322 236.082 584.4 221.803C605.931 219.95 626.937 219.404 647.931 220.56C645.506 234.706 643.675 248.954 643.121 262.875Z" stroke="#010101" stroke-width="1.79105" stroke-linecap="round" stroke-linejoin="round"/>
<path d="M584.399 221.802C605.148 234.392 623.108 247.91 643.097 261.674" stroke="#010101" stroke-width="1.79105" stroke-linecap="round" stroke-linejoin="round"/>
<path d="M646.807 221.624C624.969 235.953 603.132 250.284 581.294 264.614" stroke="#010101" stroke-width="1.79105" stroke-linecap="round" stroke-linejoin="round"/>
<path d="M637.039 319.674C632.086 322.067 593.611 321.847 575.037 321.81C574.981 307.281 576.24 292.881 578.317 278.602C599.848 276.749 620.855 276.203 641.848 277.359C639.423 291.504 637.593 305.753 637.039 319.674Z" stroke="#010101" stroke-width="1.79105" stroke-linecap="round" stroke-linejoin="round"/>
<path d="M578.318 278.602C599.067 291.192 617.027 304.711 637.016 318.474" stroke="#010101" stroke-width="1.79105" stroke-linecap="round" stroke-linejoin="round"/>
<path d="M640.725 278.423C618.887 292.752 597.05 307.083 575.212 321.413" stroke="#010101" stroke-width="1.79105" stroke-linecap="round" stroke-linejoin="round"/>
<path d="M630.73 376.473C625.777 378.865 587.301 378.646 568.728 378.609C568.672 364.08 569.931 349.68 572.008 335.4C593.539 333.547 614.546 333.002 635.539 334.157C633.114 348.303 631.284 362.551 630.73 376.473Z" stroke="#010101" stroke-width="1.79105" stroke-linecap="round" stroke-linejoin="round"/>
<path d="M572.008 335.401C592.757 347.99 610.718 361.509 630.707 375.273" stroke="#010101" stroke-width="1.79105" stroke-linecap="round" stroke-linejoin="round"/>
<path d="M634.415 335.221C612.578 349.551 590.74 363.882 568.902 378.211" stroke="#010101" stroke-width="1.79105" stroke-linecap="round" stroke-linejoin="round"/>
<path d="M769.196 119.708C768.104 127.045 765.907 134.189 762.412 140.87C760.099 145.304 757.349 149.339 754.202 153.039C748.06 160.337 740.466 166.287 732.05 171.143C718.25 179.122 702.24 184.172 686.706 187.422C669.153 191.097 650.689 193.217 633.408 188.9C631.686 188.463 629.964 187.975 628.269 187.41C619.608 184.545 611.758 179.945 604.87 174.073C593.743 164.59 585.147 151.805 579.75 137.697C576.166 128.356 573.981 118.423 573.39 108.491C572.696 96.6699 573.943 84.6424 577.9 73.5153C584.209 55.7445 597.25 40.9553 612.759 30.6759C628.281 20.3965 673.638 1.57253 708.589 14.1266C727.053 20.7439 741.419 36.3296 752.392 52.9051C765.241 72.32 772.552 96.9911 769.199 119.708H769.196Z" fill="#3C73FF" stroke="#010101" stroke-width="1.79105" stroke-linecap="round" stroke-linejoin="round"/>
<path d="M636.042 2.89903C636.618 3.02679 637.528 2.56471 637.978 2.9456C638.091 2.50978 638.708 2.38918 639.097 2.61605C639.486 2.84291 639.695 3.27873 639.882 3.68829C640.105 2.82023 641.47 2.24471 642.36 2.33068C644.715 2.55754 643.714 3.45306 644.556 3.76112C645.101 1.94262 648.199 2.84888 648.066 5.04232C647.984 4.89187 648.05 4.68053 648.203 4.60411C650.849 4.09545 650.952 5.51873 651.364 7.15575C652.282 6.43933 653.369 6.8859 653.706 7.72769C653.558 7.13784 654.278 6.63038 654.878 6.73426C655.477 6.83814 655.929 7.31694 656.337 7.76709C656.886 7.38739 657.668 7.53067 658.206 7.9259C658.745 8.32112 659.094 8.91575 659.428 9.49366C660.033 9.38739 660.688 9.62261 661.086 10.0907C661.485 10.5587 661.615 11.2417 661.415 11.822C661.328 11.6823 661.507 11.4996 661.67 11.5187C661.834 11.5378 661.957 11.6728 662.061 11.8005C662.721 12.6113 663.287 13.4985 663.743 14.4382C665.072 15.1498 665.619 16.517 665.246 17.6561C665.873 17.9283 666.173 18.7725 665.859 19.3803C666.603 19.3755 667.118 20.1289 667.344 20.837C667.571 21.545 667.68 22.3402 668.204 22.868C668.714 23.3814 669.589 23.6179 669.748 24.3235C669.897 24.9862 669.293 25.5605 668.738 25.9534C669.429 26.0071 669.938 26.6101 670.308 27.1964C671.08 28.4167 671.629 29.7791 671.915 31.1952C672.971 31.5689 673.609 32.1504 673.699 32.8441C673.789 33.5379 673.317 34.2614 672.646 34.4608C673.529 34.9229 674.316 35.674 674.568 36.6399C674.82 37.6059 674.393 38.7737 673.469 39.1486C674.106 39.3755 674.725 39.785 674.984 40.4107C675.243 41.0364 675.003 41.8889 674.366 42.1205C674.732 42.2435 675.097 42.3677 675.463 42.4907C675.559 43.6871 675.43 44.9014 675.085 46.0513C675.725 46.7928 676.044 47.2847 675.989 47.7611C675.934 48.2376 675.514 48.6447 675.035 48.6841C675.58 49.1032 675.833 49.8674 675.644 50.5289C675.455 51.1904 674.839 51.7074 674.155 51.7767C674.876 52.2423 674.953 53.434 674.297 53.988C674.553 54.8274 674.411 55.779 673.922 56.5086C674.286 56.8071 674.345 57.2429 674.24 57.4961C673.775 58.6053 672.93 59.5498 671.881 60.1349C672.008 60.0382 672.132 60.2662 672.123 60.425C672.055 61.6286 671.221 62.6698 670.239 63.3671C669.709 63.7432 669.118 64.0537 668.69 64.5432C668.017 65.3158 667.859 66.3976 667.729 67.4137C666.395 69.2143 666.024 71.8674 665.189 74.3438C662.573 82.1086 655.443 87.7062 647.7 90.3832C639.957 93.0602 631.589 93.2178 623.398 93.0352C621.144 92.985 618.832 92.899 616.752 92.0298C614.672 91.1593 612.845 89.3289 612.633 87.0841C611.858 86.7558 611.32 86.4441 611.041 85.9689C610.762 85.4937 610.75 84.8716 611.012 84.3868C610.6 84.7713 609.91 84.8119 609.457 84.4776C609.003 84.1432 608.836 83.4734 609.08 82.9647C608.719 83.2453 608.114 83.1128 607.903 82.7068C607.692 82.3008 607.932 81.7301 608.37 81.5964C607.87 82.1098 606.922 81.791 606.562 81.1701C606.203 80.5492 606.254 79.7826 606.317 79.0686C605.734 79.5916 604.266 79.2083 604.017 78.3152C603.767 77.422 604.323 76.5086 604.953 75.828C604.569 76.8334 603.041 77.1438 602.297 76.3665C601.553 75.5892 601.928 74.0764 602.949 73.7361C602.165 74.2089 601.065 74.074 600.417 73.4256C600.563 72.739 601.048 72.1325 601.686 71.8388C600.998 72.6244 599.592 72.5993 598.932 71.7898C598.273 70.9802 598.532 69.5987 599.441 69.0829C598.429 69.2131 597.367 68.5886 596.989 67.6405C596.61 66.6925 596.949 65.5092 597.773 64.9062C596.799 65.0256 595.779 64.4405 595.391 63.5391C595.003 62.6376 595.279 61.4949 596.036 60.8692C594.397 60.7068 593.78 58.0776 595.176 57.2035C593.682 56.7546 593.212 54.4561 594.408 53.4567C592.719 53.2656 592.112 50.5492 593.558 49.6573C592.192 49.1856 591.906 46.9922 593.107 46.1862C592.692 45.9856 592.278 45.785 591.864 45.5844C593.829 43.7922 591.306 39.9402 593.152 38.0262C592.035 37.0292 592.235 34.9456 593.523 34.1814C592.614 33.5689 592.621 30.8644 593.022 29.8435C593.555 28.4895 594.38 28.4501 594.911 27.0961C594.47 26.8644 594.243 24.3188 594.392 23.8435C594.855 22.357 596.818 22.9026 597.624 21.5701C598.295 20.4597 597.613 17.8794 598.488 16.9205C599.363 15.9617 600.26 16.8465 601.31 16.0835C601.169 14.4286 603.023 12.511 604.306 13.4005C603.508 10.0477 607.737 9.6262 608.009 11.1928C608.146 10.585 607.594 8.82023 608.185 8.62202C608.776 8.425 609.466 8.55873 609.941 8.96351C609.664 8.22918 609.941 7.3253 610.581 6.87276C611.221 6.42023 612.166 6.45963 612.766 6.96351C612.583 6.34859 612.868 5.625 613.423 5.30142C613.978 4.97784 615.479 4.71873 616.07 5.48888C615.898 3.17127 620.118 3.57485 620.273 3.89605C620.228 3.2859 620.832 2.7856 621.44 2.71754C622.048 2.64948 622.642 2.89187 623.203 3.13306C623.49 2.30799 624.012 1.51515 624.803 1.14859C625.595 0.782023 626.315 1.70859 626.751 2.46441C627.006 1.68829 627.699 1.07337 628.499 0.910978C629.299 0.74859 630.542 1.77545 631.081 2.38918C631.594 1.67157 632.499 1.25485 633.378 1.33127C634.257 1.40769 635.077 1.97366 636.042 2.89665V2.89903Z" fill="#010101" stroke="#010101" stroke-width="1.79105" stroke-linecap="round" stroke-linejoin="round"/>
<path d="M531.609 203.09C523.287 206.304 514.899 209.521 506.416 212.738C501.941 210.058 496.661 207.286 491.761 209.074C489.36 209.951 487.47 211.815 485.715 213.673C481.844 217.771 472.918 223.225 474.893 226.653C476.924 228.21 481.353 224.661 484.038 222.567C486.725 220.473 489.446 218.161 492.782 217.472C496.118 216.783 500.234 218.465 500.854 221.815C501.458 225.079 498.459 228.05 495.266 228.96C492.073 229.87 488.671 229.391 485.357 229.577C483.595 229.676 481.484 230.272 481.052 231.982C480.337 234.818 484.604 235.935 487.512 235.612C502.526 233.941 517.489 231.81 532.373 229.226C557.18 224.918 551.857 195.268 531.607 203.091L531.609 203.09Z" fill="white" stroke="#010101" stroke-width="1.79105" stroke-linecap="round" stroke-linejoin="round"/>
<path d="M471.485 229.28C483.446 220.979 495.405 213.409 507.366 205.107C508.447 207.017 509.526 208.928 510.607 210.838C498.542 219.189 486.842 227.54 474.777 235.891C473.504 234.244 472.18 231.624 471.485 229.279V229.28Z" fill="white" stroke="#010101" stroke-width="1.79105" stroke-linecap="round" stroke-linejoin="round"/>
<path d="M471.373 229.47C470.125 231.693 468.85 233.901 467.546 236.092C469.931 236.248 472.325 236.239 474.708 236.066C473.242 233.913 471.777 231.76 471.373 229.47Z" stroke="#010101" stroke-width="1.79105" stroke-linecap="round" stroke-linejoin="round"/>
<path d="M502.24 209.311C503.295 210.665 504.348 212.02 505.402 213.374L502.24 209.311Z" fill="white"/>
<path d="M502.24 209.311C503.295 210.665 504.348 212.02 505.402 213.374" stroke="#010101" stroke-width="1.79105" stroke-linecap="round" stroke-linejoin="round"/>
<path d="M604.306 38.8335C604.837 38.4 604.511 37.5618 604.497 36.8765C604.482 36.1911 605.621 35.6 605.696 36.2818C604.836 36.1935 604.086 35.1929 604.515 34.4418C604.943 33.6908 606.459 34.2675 606.096 35.052C605.36 34.6627 605.079 33.606 605.525 32.9027C605.969 32.1994 607.044 32 607.711 32.4967C607.501 31.649 607.29 30.8024 607.079 29.9547C607.546 29.9511 608.013 29.9487 608.48 29.9451C608.911 29.1117 608.541 27.9594 607.704 27.5344C607.35 28.2221 608.745 28.6962 609.104 28.012C609.464 27.3278 608.882 26.4788 608.173 26.1696C607.553 26.3045 607.577 27.3648 608.168 27.5941C608.759 27.8245 609.447 27.3075 609.564 26.6842C609.681 26.0609 609.359 25.4269 608.915 24.9744C609.987 24.8239 610.687 23.4687 610.189 22.5075C610.417 23.009 611.373 22.5457 611.121 22.0562C611.506 22.5672 611.89 23.077 612.275 23.5881C611.731 24.0024 611.649 24.8979 612.107 25.4042C612.566 25.9105 613.465 25.9176 613.931 25.4173C613.33 25.8376 613.163 26.7642 613.58 27.3672C613.996 27.9702 614.921 28.1445 615.527 27.7338C615.175 28.3117 615.348 29.1499 615.9 29.5415C616.451 29.9344 617.299 29.8221 617.73 29.3003C617.604 30.172 618.469 31.0376 619.341 30.9111C620.213 30.7845 620.795 29.7063 620.424 28.9075C619.778 29.8794 620.355 31.4126 621.482 31.7159C622.609 32.0203 623.878 30.9863 623.809 29.8209C622.866 30.6006 623.248 32.4132 624.426 32.7463C625.605 33.0794 626.878 31.7338 626.482 30.5756C626.098 31.606 626.968 32.886 628.067 32.9087C629.165 32.9314 630.087 31.6872 629.746 30.6424C628.773 31.1403 628.724 32.7762 629.664 33.3314C630.607 33.8866 632.014 33.052 631.978 31.9582C631.49 32.8084 631.894 34.0418 632.79 34.4382C633.687 34.8347 634.87 34.3033 635.17 33.3684C635.204 34.086 635.832 34.726 636.548 34.775C637.264 34.8239 637.973 34.2735 638.103 33.5678C637.575 33.5965 637.487 34.443 637.894 34.7809C638.301 35.1188 638.89 35.0794 639.415 35.0209C639.94 34.9624 640.528 34.9206 640.939 35.2538C640.995 34.56 641.051 33.8675 641.106 33.1738C641.04 33.6848 641.27 34.2233 641.408 34.6293C642.615 34.4418 642.99 32.9027 643.854 32.0394C644.485 31.4102 645.391 31.1475 646.271 31.0054C646.944 30.8967 647.648 30.8454 648.301 31.0412C649.06 31.2693 649.682 31.8066 650.257 32.3523C650.945 33.0054 651.606 33.7015 652.088 34.517C653.152 36.3153 653.235 38.6353 652.377 40.5397C651.52 42.4442 649.04 46.4657 646.817 47.3159C650.535 54.7117 652.276 60.3905 656.825 67.1272C659.65 66.8526 663.429 65.157 667.128 64.1111C671.147 67.1487 674.873 70.9338 676.407 75.7326C678.087 80.9875 676.909 86.7511 674.89 91.8854C673.78 94.7069 672.39 97.4735 670.307 99.6752C668.085 102.023 665.184 103.613 662.226 104.916C653.648 108.693 644.144 110.345 634.795 109.684C631.673 109.463 628.498 108.965 625.741 107.484C622.357 105.666 619.828 102.423 618.611 98.7785C617.393 95.1344 617.441 91.126 618.455 87.4209C618.775 86.2532 619.206 85.0794 620.013 84.1756C620.93 83.1499 622.235 82.5744 623.497 82.0299C626.404 80.775 629.31 79.52 632.182 78.0657C631.149 75.6096 630.021 73.1929 628.666 70.4526C622.681 72.8335 615.181 70.492 611.612 65.1284C610.368 63.2585 609.587 61.1236 608.891 58.9887C606.709 52.2997 605.253 45.3756 604.306 38.8275V38.8335Z" fill="white" stroke="#010101" stroke-width="1.79105" stroke-linecap="round" stroke-linejoin="round"/>
<path d="M769.196 119.707C768.104 127.045 765.907 134.189 762.412 140.87C760.099 145.304 757.349 149.338 754.202 153.039C736.958 141.14 720.383 125.619 705.041 112.59C713.483 130.9 723.479 152.512 732.05 171.144C718.249 179.124 702.24 184.173 686.706 187.423C669.153 191.098 650.689 193.218 633.408 188.901C633.009 187.925 632.585 186.897 632.136 185.817C626.624 172.75 619.994 154.196 614.468 141.128C611.551 151.446 608.107 163.01 604.869 174.074C603.482 178.815 602.132 183.479 600.886 187.9C599.434 193.014 597.918 198.269 594.616 202.445C590.119 208.15 583.001 210.99 576.229 213.586C556.018 221.321 535.818 229.057 516.583 236.201C513.859 226.628 511.147 217.055 508.424 207.483C527.132 200.275 545.853 193.079 565.448 184.765C570.215 169.077 574.983 153.387 579.749 137.699C582.127 129.861 584.504 122.036 586.88 114.211C588.396 109.213 589.951 104.125 592.893 99.8077C599.189 90.5826 610.522 86.4955 621.727 82.8597C623.783 89.8758 628.973 95.8889 635.604 98.96C642.221 102.018 650.174 102.082 656.843 99.114C660.697 97.3922 664.167 94.6686 666.377 91.0579C671.132 83.2716 669.255 73.2871 666.377 64.3188C673.984 61.428 682.195 58.511 690.072 60.5671C694.851 61.8137 698.977 64.794 702.947 67.7373C725.522 84.4286 747.611 101.762 769.198 119.712L769.196 119.707Z" fill="white" stroke="#010101" stroke-width="1.79105" stroke-linecap="round" stroke-linejoin="round"/>
<path d="M652.221 100.628C661.151 126.142 671.897 154.237 680.826 179.751" stroke="#010101" stroke-width="1.79105" stroke-linecap="round" stroke-linejoin="round"/>
<path d="M631.869 184.559C665.054 184.937 686.611 180.328 729.602 165.819" stroke="#010101" stroke-width="1.79105" stroke-linecap="round" stroke-linejoin="round"/>
<path d="M614.03 47.6155C614.011 50.6411 613.99 53.668 613.971 56.6937C615.509 57.0352 617.125 57.0185 618.655 56.6483" stroke="#010101" stroke-width="1.79105" stroke-linecap="round" stroke-linejoin="round"/>
<path d="M627.828 70.8548C630.833 70.1383 633.271 68.0082 635.574 65.9485" stroke="#010101" stroke-width="1.79105" stroke-linecap="round" stroke-linejoin="round"/>
<path d="M667.007 113.546C666.527 113.771 666.12 114.185 665.982 114.697C665.845 115.21 666.013 115.81 666.444 116.12C666.871 116.425 667.444 116.405 667.964 116.348C668.167 116.326 668.378 116.297 668.547 116.185C668.701 116.084 668.804 115.923 668.902 115.766C669.062 115.509 669.219 115.245 669.293 114.953C669.367 114.66 669.351 114.33 669.179 114.081C669.069 113.923 668.904 113.808 668.731 113.72C668.356 113.528 667.845 113.156 667.007 113.546Z" stroke="#010101" stroke-width="1.79105" stroke-linecap="round" stroke-linejoin="round"/>
<path d="M682.785 158.142C681.963 158.026 681.097 158.67 681.01 159.497C680.923 160.324 681.673 161.149 682.502 161.106C683.157 161.071 683.727 160.548 683.911 159.92C684.095 159.292 684.001 158.315 682.787 158.143L682.785 158.142Z" stroke="#010101" stroke-width="1.79105" stroke-linecap="round" stroke-linejoin="round"/>
<path d="M676.288 137.668C675.465 137.552 674.599 138.196 674.512 139.023C674.425 139.851 675.175 140.675 676.005 140.632C676.659 140.597 677.23 140.074 677.414 139.446C677.598 138.818 677.503 137.841 676.289 137.669L676.288 137.668Z" stroke="#010101" stroke-width="1.79105" stroke-linecap="round" stroke-linejoin="round"/>
<path d="M173.503 379.219C172.179 380.54 170.127 381.079 168.324 380.583C166.521 380.085 165.037 378.569 164.577 376.756C164.305 375.684 164.374 374.548 164.615 373.47C165.102 371.288 166.393 369.187 168.405 368.212C170.417 367.238 173.162 367.693 174.349 369.78C176.607 370.986 179.511 370.266 181.52 368.681C183.53 367.095 184.829 364.796 186.025 362.532C188.812 357.261 191.364 351.688 191.798 345.741C196.674 349.907 203.365 351.866 209.852 350.682C211.382 354.95 212.041 359.473 212.693 363.962C213.25 367.806 213.554 371.704 212.985 375.547C211.34 386.686 206.387 389.399 199.283 391.861C199.484 396.74 199.687 401.62 200.189 406.701C203.782 406.306 207.363 405.793 210.664 404.953C211.554 414.747 210.947 424.807 207.631 434.066C204.315 443.324 198.12 451.744 189.534 456.142C184.693 454.604 179.987 452.291 176.426 448.666C173.811 446.004 171.905 442.731 170.271 439.375C166.431 431.489 163.954 424.226 163.994 415.096C166.468 414.622 170.887 413.759 173.336 412.811C173.336 402.571 173.503 392.444 173.503 379.218V379.219Z" fill="white" stroke="#010101" stroke-width="1.79105" stroke-linecap="round" stroke-linejoin="round"/>
<path d="M189.716 390.727C192.645 392.21 196.098 392.632 199.299 391.896" stroke="#010101" stroke-width="1.79105" stroke-linecap="round" stroke-linejoin="round"/>
<path d="M201.241 361.494C203.095 364.193 204.669 367.088 205.927 370.111C204.73 370.9 203.477 371.608 202.183 372.228" stroke="#010101" stroke-width="1.79105" stroke-linecap="round" stroke-linejoin="round"/>
<path d="M189.534 456.142C190.427 482.074 190.684 507.337 191.577 533.269" stroke="#010101" stroke-width="1.79105" stroke-linecap="round" stroke-linejoin="round"/>
<path d="M198.369 591.795C201.372 595.657 204.376 599.52 207.379 603.383C208.135 604.355 209.169 605.435 210.373 605.176C211.187 597.54 211.255 589.826 210.575 582.177C205.105 583.891 199.979 586.695 198.369 591.795Z" fill="white" stroke="#010101" stroke-width="1.79105" stroke-linecap="round" stroke-linejoin="round"/>
<path d="M133.834 537.625C110.145 539.263 98.4168 538.126 82.9445 545.892C79.8842 547.429 76.9768 549.369 74.7308 551.954C66.7654 561.12 69.6478 576.35 78.4215 584.745C87.1953 593.14 100.032 595.852 112.176 595.874C124.319 595.897 132.442 595.338 148.521 593.633C156.481 592.789 161.614 598.412 161.614 598.412C161.614 598.412 207.401 595.165 232.164 592.242C257.342 589.27 328.768 572.994 284.523 539.181C274.997 531.901 250.472 530.351 238.511 531.177C217.568 532.625 174.824 534.789 133.834 537.625Z" fill="#010101" stroke="#010101" stroke-width="1.79105" stroke-linecap="round" stroke-linejoin="round"/>
<path d="M167.367 559.728C159.828 559.22 156.791 559.04 149.236 559.138C149.236 574.093 147.48 597.648 146.53 609.279C146.379 611.138 148.793 611.981 149.833 610.432C155.165 602.488 164.173 589.175 164.973 588.706C165.722 588.266 167.517 588.732 167.429 587.867C166.603 579.67 167.368 570.969 167.368 559.726L167.367 559.728Z" fill="white" stroke="#010101" stroke-width="1.79105" stroke-linecap="round" stroke-linejoin="round"/>
<path d="M101.618 554.529C124.141 555.359 145.44 554.497 167.975 554.109" stroke="white" stroke-width="1.79105" stroke-linecap="round" stroke-linejoin="round"/>
<path d="M246.232 542.938C220.152 544.4 194.145 547.154 168.338 551.188C166.312 566.597 165.741 582.198 166.638 597.714" stroke="white" stroke-width="1.79105" stroke-linecap="round" stroke-linejoin="round"/>
<path d="M319.932 313.346C320.676 308.241 319.393 299.497 318.487 292.548C318.345 291.455 318.579 289.928 319.68 289.882C320.236 289.858 320.702 290.277 321.084 290.681C323.184 292.9 324.836 295.544 325.909 298.406C325.731 290.769 327.704 280.783 328.864 273.233C329.533 270.038 332.221 270.904 332.839 271.791C333.458 272.678 333.226 274.047 333.286 275.127C333.588 280.648 331.766 286.516 332.424 291.744C338.043 291.869 347.981 293.129 348.855 296.787C349.728 300.439 344.294 313.164 343.705 316.873C340.378 316.873 324.812 314.304 319.932 313.346Z" fill="white" stroke="#010101" stroke-width="1.79105" stroke-linecap="round" stroke-linejoin="round"/>
<path d="M332.911 289.076C332.312 291.995 331.891 295.464 331.292 298.383C331.158 299.037 331.023 299.707 331.123 300.368C331.222 301.028 331.607 301.686 332.231 301.923C333.137 302.267 334.122 301.62 334.744 300.876C336.803 298.411 337.269 292.777 338.732 289.917C337.641 292.818 336.905 295.853 336.549 298.932C336.408 300.152 336.393 301.559 337.29 302.396C337.497 302.59 337.767 302.746 338.05 302.719C338.245 302.7 338.42 302.598 338.584 302.489C340.278 301.365 341.265 299.446 341.962 297.535C342.659 295.625 343.15 293.617 344.185 291.867C343.456 294.424 342.726 296.98 341.995 299.538C341.265 302.095 342.179 303.54 344.373 303.153C346.071 302.854 348.185 299.135 348.856 296.789C349.111 295.898 349.601 294.664 347.491 292.965C344.776 290.778 334.892 287.342 332.912 289.077L332.911 289.076Z" fill="white" stroke="#010101" stroke-width="1.79105" stroke-linecap="round" stroke-linejoin="round"/>
<path d="M416.142 244.576C418.08 240.467 422.321 237.543 426.85 237.191C434.4 236.603 441.596 242.595 449.002 241.009C451.55 240.463 453.823 239.057 456.289 238.215C458.376 237.502 460.604 237.201 462.806 237.333C464.226 237.417 466.054 237.454 466.597 236.14" stroke="#010101" stroke-width="1.79105" stroke-linecap="round" stroke-linejoin="round"/>
<path d="M414.184 278.414C417.384 273.937 423.044 271.343 428.526 271.843C433.058 272.258 437.3 274.605 441.852 274.636C447.062 274.672 451.794 271.691 456.909 270.705C463.014 269.529 469.256 271.248 475.457 271.693C490.185 272.752 505.125 266.625 519.52 269.911C524.066 270.949 528.511 272.919 533.168 272.684C539.316 272.374 545.378 268.241 551.223 270.175" stroke="#010101" stroke-width="1.79105" stroke-linecap="round" stroke-linejoin="round"/>
<path d="M416.017 317.994C419.879 314.952 424.172 311.756 429.089 311.841C433.668 311.921 437.687 314.85 442.149 315.879C446.938 316.984 451.927 315.846 456.709 314.712" stroke="#010101" stroke-width="1.79105" stroke-linecap="round" stroke-linejoin="round"/>
<path d="M474.242 406.415C451.395 406.543 428.548 406.671 405.7 406.799C401.6 406.821 397.447 406.838 393.476 405.821C389.505 404.803 385.668 402.617 383.524 399.122C381.746 396.224 381.276 392.682 381.513 389.291C382.207 379.372 389.94 369.7 399.86 369.034C425.971 368.32 451.932 368.303 477.908 367.651C484.357 367.053 491.14 369.35 495.482 374.155C499.823 378.961 501.391 386.276 498.879 392.246C496.909 396.929 492.801 400.376 488.486 403.059C484.818 405.34 480.35 407.251 474.24 406.414L474.242 406.415Z" stroke="#010101" stroke-width="1.79105" stroke-linecap="round" stroke-linejoin="round"/>
<path d="M401.039 393.39C404.381 390.984 406.589 387.307 409.723 384.636C412.856 381.965 417.831 380.509 420.965 383.178C422.73 384.682 423.418 387.081 424.81 388.934C427.253 392.187 432.054 393.41 435.755 391.719C438.945 390.263 441.41 386.928 444.916 386.844C446.766 386.801 448.483 387.707 450.238 388.294C457.816 390.823 466.38 387.386 474.013 389.747" stroke="#010101" stroke-width="1.79105" stroke-linecap="round" stroke-linejoin="round"/>
<path d="M111.355 111.228C121.821 104.5 129.585 93.6909 132.615 81.624C133.542 86.8598 134.491 92.1661 136.76 96.9745C139.03 101.783 142.818 106.115 147.844 107.85C140.345 113.394 135.299 122.139 134.251 131.406C132.011 120.249 122.173 111.044 111.355 111.228Z" stroke="#010101" stroke-width="1.79105" stroke-linecap="round" stroke-linejoin="round"/>
<path d="M734.478 245.546C738.843 242.296 742.374 237.933 744.64 232.985C744.749 235.747 744.872 238.572 745.902 241.137C746.934 243.701 749.069 245.998 751.797 246.439C748.144 248.464 745.418 252.093 744.491 256.166C744.447 251.454 740.175 247.19 734.478 245.546Z" stroke="#010101" stroke-width="1.79105" stroke-linecap="round" stroke-linejoin="round"/>
<path d="M425.534 518.836C432.07 515.806 437.656 510.764 441.335 504.571C441.111 510.794 445.593 516.878 451.602 518.509C445.689 521.802 441.681 528.281 441.375 535.042C441.563 527.325 435.106 520.027 425.534 518.836Z" stroke="#010101" stroke-width="1.79105" stroke-linecap="round" stroke-linejoin="round"/>
<path d="M45.5215 293.888C48.1257 294.321 50.7286 294.756 53.3328 295.189" stroke="#010101" stroke-width="1.79105" stroke-linecap="round" stroke-linejoin="round"/>
<path d="M497.263 94.7056C497.987 97.4542 498.709 100.202 499.433 102.95" stroke="#010101" stroke-width="1.79105" stroke-linecap="round" stroke-linejoin="round"/>
<path d="M487.655 548.684C486.787 552.301 485.919 555.916 485.051 559.533" stroke="#010101" stroke-width="1.79105" stroke-linecap="round" stroke-linejoin="round"/>
<path d="M347.98 81.6154C346.622 82.0417 345.946 83.8387 346.604 85.1008C347.262 86.3629 349.015 86.8632 350.288 86.2291C351.551 85.5999 352.209 83.9163 351.606 82.6399C351.003 81.3635 349.341 81.1879 347.979 81.6154H347.98Z" fill="#010101" stroke="#010101" stroke-width="1.79105" stroke-linecap="round" stroke-linejoin="round"/>
<path d="M795.088 306.14C793.73 306.566 793.054 308.363 793.712 309.625C794.37 310.887 796.123 311.388 797.396 310.753C798.659 310.124 799.317 308.441 798.714 307.164C798.111 305.888 796.45 305.712 795.088 306.14Z" fill="#010101" stroke="#010101" stroke-width="1.79105" stroke-linecap="round" stroke-linejoin="round"/>
<path d="M554.215 488.318C552.857 488.744 552.181 490.541 552.839 491.803C553.497 493.065 555.25 493.565 556.523 492.931C557.786 492.302 558.444 490.618 557.841 489.342C557.238 488.066 555.576 487.89 554.213 488.318H554.215Z" fill="#010101" stroke="#010101" stroke-width="1.79105" stroke-linecap="round" stroke-linejoin="round"/>
<path d="M58.1932 336.27C54.1228 336.302 50.1992 339.416 49.5234 343.431C48.8488 347.445 51.7693 351.809 55.7896 352.449C60.038 353.125 64.3114 349.495 64.7926 345.22C65.2738 340.945 62.3162 336.676 58.1932 336.271V336.27Z" fill="#010101" stroke="#010101" stroke-width="1.79105" stroke-linecap="round" stroke-linejoin="round"/>
<path d="M22.743 568.124C18.6726 568.156 14.749 571.27 14.0732 575.285C13.3986 579.299 16.3192 583.663 20.3395 584.303C24.5878 584.979 28.8612 581.349 29.3424 577.075C29.8236 572.799 26.866 568.53 22.743 568.125V568.124Z" fill="#010101" stroke="#010101" stroke-width="1.79105" stroke-linecap="round" stroke-linejoin="round"/>
<path d="M287.736 311.84C283.666 311.872 279.742 314.986 279.066 319C278.392 323.015 281.312 327.379 285.333 328.019C289.581 328.695 293.854 325.065 294.336 320.79C294.817 316.514 291.859 312.246 287.736 311.841V311.84Z" fill="#010101" stroke="#010101" stroke-width="1.79105" stroke-linecap="round" stroke-linejoin="round"/>
<path d="M779.026 431.454C778.692 446.565 776.597 461.971 771.882 476.118C768.503 486.295 763.762 495.816 757.363 504.129C757.196 504.347 757.015 504.579 756.823 504.797C745.966 518.598 731.51 527.631 715.564 532.963C698.038 538.836 678.713 540.223 660.416 538.566C647.643 537.41 635.039 534.544 622.987 529.674C615.765 526.757 609.379 523.353 603.713 519.613C565.242 494.21 560.527 452.887 561.785 436.209C561.875 435.002 562.004 433.921 562.145 432.984C564.201 419.569 567.734 406.322 572.745 393.858C579.273 377.642 588.319 362.736 599.947 350.427C620.519 328.661 649.544 315.773 678.005 319.037C708.175 322.481 743.844 333.48 763.105 363.11C775.775 382.616 779.564 407.542 779.025 431.455L779.026 431.454Z" fill="#E3E3FF" stroke="#010101" stroke-width="1.79105" stroke-linecap="round" stroke-linejoin="round"/>
<path d="M771.882 476.118C768.503 486.295 763.761 495.816 757.363 504.129C757.195 504.347 757.015 504.579 756.823 504.797C755.911 505.221 754.998 505.633 754.086 506.044C745.606 491.344 736.046 477.262 725.51 463.95C722.4 483.596 719.29 503.243 716.181 522.876C716.129 526.204 716.091 529.661 715.563 532.963C698.037 538.836 678.712 540.223 660.415 538.566C647.642 537.41 635.038 534.544 622.985 529.674C615.764 526.757 609.378 523.353 603.711 519.613C605.703 493.581 610.625 472.663 612.012 446.258C601.656 444.549 573.889 439.5 561.785 436.21C559.113 435.49 557.211 434.848 556.415 434.347C535.265 421.061 524.356 376.449 514.141 354.194C524.729 348.657 535.316 343.132 545.905 337.594C553.1 356.611 561.735 376.411 572.746 393.86C574.828 397.188 577.013 400.439 579.286 403.574C601.81 405.398 626.366 406.426 655.995 408.817C656.625 416.707 662.921 429.235 673.548 430.557C691.112 432.741 696.406 422.694 698.809 412.003C709.217 412.684 715.358 413.057 725.844 414.985C728.453 415.46 731.009 416.399 733.168 417.927C735.686 419.713 737.395 422.399 739.04 424.995C746.364 436.597 753.701 448.2 761.025 459.803C764.52 465.314 768.015 470.866 771.882 476.122V476.118Z" fill="#010101" stroke="#010101" stroke-width="1.79105" stroke-linecap="round" stroke-linejoin="round"/>
<path d="M712.17 460.608C704.06 460.19 695.98 459.189 687.68 457.257C686.406 464.535 685.465 471.87 685.088 479.355C685.574 480.733 686.946 481.563 688.227 482.265C691.086 483.834 694.084 485.371 697.336 485.605C702.083 485.946 706.57 483.467 709.958 480.483C711.456 473.474 712.142 466.292 712.17 460.606V460.608Z" stroke="white" stroke-width="1.79105" stroke-linecap="round" stroke-linejoin="round"/>
<path d="M463.37 288.239C463.597 302.364 463.824 316.489 464.051 330.616C485.463 328.587 506.952 330.975 528.457 330.553C529.901 313.792 528.654 304.506 530.132 287.368C516.524 288.223 476.126 287.437 463.37 288.239Z" fill="#3C73FF" stroke="#010101" stroke-width="1.79105" stroke-linecap="round" stroke-linejoin="round"/>
<path d="M541.613 339.479C540.292 334.826 538.906 330.048 535.945 326.223C534.664 324.568 533.12 323.139 531.585 321.718C528.957 319.287 526.14 316.756 522.629 316.053C522.104 315.947 521.538 315.89 521.052 316.113C520.085 316.56 519.905 317.938 520.363 318.899C520.822 319.86 521.712 320.528 522.499 321.247C524.928 323.46 526.998 327.097 529.455 330.253C524.029 330.831 518.604 330.41 513.179 330.987C513.968 334.849 517.672 346.911 520.11 350.61C529.366 346.547 532.036 344.282 541.615 339.478L541.613 339.479Z" fill="white" stroke="#010101" stroke-width="1.79105" stroke-linecap="round" stroke-linejoin="round"/>
<path d="M659.473 361.744C660.121 354.561 660.806 347.232 663.703 340.628C664.409 339.018 665.261 337.439 666.514 336.208C668.331 334.421 670.873 333.508 673.411 333.27C675.948 333.033 678.502 333.421 680.996 333.94C688.308 335.461 695.333 338.105 702.288 340.825C704.501 341.691 706.742 342.583 708.629 344.027C712.747 347.18 714.941 352.316 714.783 357.501C714.624 362.684 712.687 367.651 710.374 372.292C705.396 382.282 697.56 388.403 689.283 395.89C685.339 390.56 684.172 381.678 679.249 373.612C675.489 367.453 670.138 362.032 659.473 361.746V361.744Z" fill="#010101" stroke="#010101" stroke-width="1.79105" stroke-linecap="round" stroke-linejoin="round"/>
<path d="M529.739 330.615C528.589 331.418 527.679 332.562 527.155 333.864C526.859 334.599 526.684 335.377 526.53 336.155C526.278 337.426 526.08 338.762 526.46 340" stroke="#010101" stroke-width="1.79105" stroke-linecap="round" stroke-linejoin="round"/>
<path d="M666.425 392.844C665.399 398.122 665.448 401.657 663.967 409.286C660.605 409.105 658.818 408.8 655.47 409.149C652.627 416.306 655.414 429.089 661.592 432.958C663.673 434.262 666.033 435.06 668.424 435.625C671.951 436.457 675.593 436.8 679.213 436.639C683.656 436.441 688.142 435.452 691.946 433.149C695.75 430.845 698.815 422.844 699.721 418.49C700.061 416.85 701.288 412.48 699.668 412.06C696.993 411.365 692.548 410.81 689.263 410.389C690.761 400.4 691.955 390.78 693.147 381.161C696.842 381.377 700.701 378.829 701.513 375.284C702.094 372.742 700.771 369.582 698.203 369.126C696.579 368.838 694.923 369.7 693.826 370.931C692.728 372.162 692.084 373.721 691.459 375.248C690.522 375.095 689.584 374.942 688.648 374.789C688.229 373.121 689.82 371.318 689.11 369.752C688.473 368.343 686.476 368.215 685.393 367.112C684.131 365.826 684.494 363.687 685.187 362.024C685.879 360.361 686.838 358.638 686.491 356.869C685.978 354.263 682.958 353.028 680.319 352.725C677.68 352.422 674.784 352.524 672.677 350.906C671.918 350.324 671.303 349.539 670.445 349.114C669.097 348.444 667.409 348.835 666.195 349.725C664.98 350.616 664.153 351.928 663.416 353.242C661.512 356.639 660.02 360.267 658.819 364.188C656.468 370.318 654.08 376.923 655.633 383.303C656.019 384.885 656.655 386.43 657.681 387.696C658.938 389.245 660.698 390.29 662.435 391.274C663.764 392.026 666.461 392.67 666.426 392.845L666.425 392.844Z" fill="white" stroke="#010101" stroke-width="1.79105" stroke-linecap="round" stroke-linejoin="round"/>
<path d="M665.608 392.642C668.691 393.533 671.881 394.051 675.085 394.185" stroke="#010101" stroke-width="1.79105" stroke-linecap="round" stroke-linejoin="round"/>
<path d="M665.939 366.324C664.61 368.262 663.282 370.201 661.953 372.139C661.885 372.238 661.814 372.351 661.833 372.47C661.851 372.584 661.944 372.667 662.035 372.736C663.16 373.593 664.019 373.69 666.103 374.483" stroke="#010101" stroke-width="1.79105" stroke-linecap="round" stroke-linejoin="round"/>
<path d="M482.577 300.443C479.027 303.021 475.476 305.598 471.926 308.176C475.062 311.526 478.484 314.608 482.144 317.376" stroke="#010101" stroke-width="1.79105" stroke-linecap="round" stroke-linejoin="round"/>
<path d="M498.968 295.656C496.128 303.719 493.653 311.913 491.552 320.199" stroke="#010101" stroke-width="1.79105" stroke-linecap="round" stroke-linejoin="round"/>
<path d="M506.628 299.054C509.742 302.3 514.456 305.581 518.113 308.198C514.764 311.101 508.816 315.63 505.468 318.532" stroke="#010101" stroke-width="1.79105" stroke-linecap="round" stroke-linejoin="round"/>
<path d="M231.434 248.794C234.293 230.882 235.001 209.697 238.146 189.988C188.758 191.108 139.403 189.767 90.1637 193.741C90.0766 212.436 88.3727 230.663 87.3184 249.485C136.505 250.577 188.091 249.777 231.434 248.794Z" fill="#E3E3FF" stroke="#010101" stroke-width="1.79105" stroke-linecap="round" stroke-linejoin="round"/>
<path d="M125.094 207.827C118.981 207.244 112.727 211.262 110.714 217.063C108.701 222.865 111.124 229.891 116.284 233.219C118.751 234.811 121.679 235.581 124.606 235.825C128.01 236.109 131.661 235.628 134.333 233.5C136.878 231.473 138.182 228.22 138.612 224.996C139.373 219.272 137.42 213.013 132.84 209.494C130.775 207.908 128.011 206.917 125.094 207.825V207.827Z" fill="white" stroke="#010101" stroke-width="1.79105" stroke-linecap="round" stroke-linejoin="round"/>
<path d="M161.022 209.779C180.239 209.321 199.445 208.361 218.611 206.899L161.022 209.779Z" fill="#E3E3FF"/>
<path d="M161.022 209.779C180.239 209.321 199.445 208.361 218.611 206.899" stroke="#010101" stroke-width="1.79105" stroke-linecap="round" stroke-linejoin="round"/>
<path d="M161.263 223.059C171.56 222.975 181.854 222.479 192.112 221.571L161.263 223.059Z" fill="#E3E3FF"/>
<path d="M161.263 223.059C171.56 222.975 181.854 222.479 192.112 221.571" stroke="#010101" stroke-width="1.79105" stroke-linecap="round" stroke-linejoin="round"/>
<path d="M349.467 568.312C360.535 568.186 371.602 568.061 382.67 567.936" stroke="#010101" stroke-width="1.79105" stroke-linecap="round" stroke-linejoin="round"/>
</g>
</g>
<defs>
<clipPath id="clip0_9_312">
<rect width="800" height="612.537" fill="white"/>
</clipPath>
</defs>
</svg>
