<svg width="161" height="40" viewBox="0 0 161 40" fill="none" xmlns="http://www.w3.org/2000/svg">
<g clip-path="url(#clip0_11_444)">
<path d="M48.438 27.9554H59.8208V24.5269H52.4837V11.6126H48.438V27.9554Z" fill="#1A1414"/>
<path d="M66.5652 25.6697C64.9423 25.6697 64.0966 24.2526 64.0966 22.1268C64.0966 20.0011 64.9423 18.5611 66.5652 18.5611C68.1881 18.5611 69.0566 20.0011 69.0566 22.1268C69.0566 24.2526 68.1881 25.6697 66.5652 25.6697ZM66.588 28.3211C70.3595 28.3211 72.8281 25.6468 72.8281 22.1268C72.8281 18.6068 70.3595 15.9326 66.588 15.9326C62.8395 15.9326 60.3252 18.6068 60.3252 22.1268C60.3252 25.6468 62.8395 28.3211 66.588 28.3211Z" fill="#1A1414"/>
<path d="M79.3559 32.0012C81.093 32.0012 82.6244 31.6126 83.653 30.6983C84.5901 29.8526 85.2073 28.5726 85.2073 26.8126V16.2526H81.6416V17.5097H81.5958C80.9101 16.5269 79.8587 15.9097 78.3044 15.9097C75.4016 15.9097 73.3901 18.3326 73.3901 21.7612C73.3901 25.3497 75.8359 27.3154 78.4644 27.3154C79.8816 27.3154 80.773 26.744 81.4587 25.9669H81.5501V27.1326C81.5501 28.5497 80.8873 29.3726 79.3101 29.3726C78.0759 29.3726 77.4587 28.8469 77.253 28.2297H73.6416C74.0073 30.6754 76.133 32.0012 79.3559 32.0012ZM79.333 24.5497C77.9387 24.5497 77.0244 23.4069 77.0244 21.6469C77.0244 19.864 77.9387 18.7212 79.333 18.7212C80.8873 18.7212 81.7101 20.0469 81.7101 21.624C81.7101 23.2697 80.9558 24.5497 79.333 24.5497Z" fill="#1A1414"/>
<path d="M92.5388 25.6697C90.916 25.6697 90.0703 24.2526 90.0703 22.1268C90.0703 20.0011 90.916 18.5611 92.5388 18.5611C94.1617 18.5611 95.0303 20.0011 95.0303 22.1268C95.0303 24.2526 94.1617 25.6697 92.5388 25.6697ZM92.5617 28.3211C96.3331 28.3211 98.8017 25.6468 98.8017 22.1268C98.8017 18.6068 96.3331 15.9326 92.5617 15.9326C88.8131 15.9326 86.2988 18.6068 86.2988 22.1268C86.2988 25.6468 88.8131 28.3211 92.5617 28.3211Z" fill="#1A1414"/>
<path d="M99.8896 27.9554H103.615V16.2526H99.8896V27.9554ZM99.8896 14.6297H103.615V11.6126H99.8896V14.6297Z" fill="#1A1414"/>
<path d="M105.232 31.8183H108.958V26.744H109.004C109.735 27.7269 110.81 28.3212 112.318 28.3212C115.381 28.3212 117.415 25.8983 117.415 22.104C117.415 18.584 115.518 15.9097 112.41 15.9097C110.81 15.9097 109.667 16.6183 108.867 17.6697H108.798V16.2526H105.232V31.8183ZM111.358 25.4412C109.758 25.4412 108.844 24.1383 108.844 22.2412C108.844 20.344 109.667 18.904 111.29 18.904C112.89 18.904 113.644 20.2297 113.644 22.2412C113.644 24.2297 112.775 25.4412 111.358 25.4412Z" fill="#1A1414"/>
<path d="M123.481 28.3212C126.544 28.3212 128.807 26.9954 128.807 24.4354C128.807 21.4412 126.384 20.9154 124.327 20.5726C122.841 20.2983 121.515 20.184 121.515 19.3612C121.515 18.6297 122.224 18.2869 123.138 18.2869C124.167 18.2869 124.875 18.6069 125.012 19.6583H128.441C128.258 17.3497 126.475 15.9097 123.161 15.9097C120.395 15.9097 118.11 17.1897 118.11 19.6583C118.11 22.4012 120.281 22.9497 122.315 23.2926C123.87 23.5669 125.287 23.6812 125.287 24.7326C125.287 25.4869 124.578 25.8983 123.458 25.8983C122.224 25.8983 121.447 25.3269 121.31 24.1612H117.79C117.904 26.744 120.052 28.3212 123.481 28.3212Z" fill="#1A1414"/>
<path d="M133.868 28.2983C135.491 28.2983 136.519 27.6583 137.365 26.5154H137.433V27.9554H140.999V16.2526H137.273V22.7897C137.273 24.184 136.496 25.144 135.216 25.144C134.028 25.144 133.456 24.4354 133.456 23.1554V16.2526H129.753V23.9326C129.753 26.5383 131.171 28.2983 133.868 28.2983Z" fill="#1A1414"/>
<path d="M142.619 27.9554H146.345V21.3954C146.345 20.0012 147.031 19.0183 148.196 19.0183C149.316 19.0183 149.842 19.7497 149.842 21.0069V27.9554H153.568V21.3954C153.568 20.0012 154.231 19.0183 155.419 19.0183C156.539 19.0183 157.065 19.7497 157.065 21.0069V27.9554H160.791V20.344C160.791 17.7154 159.465 15.9097 156.813 15.9097C155.305 15.9097 154.048 16.5497 153.133 17.9669H153.088C152.493 16.7097 151.328 15.9097 149.796 15.9097C148.105 15.9097 146.985 16.7097 146.253 17.9212H146.185V16.2526H142.619V27.9554Z" fill="#1A1414"/>
<path fill-rule="evenodd" clip-rule="evenodd" d="M19.6991 0.916138C30.4247 0.916138 39.1194 9.61087 39.1194 20.3364C39.1194 31.062 30.4247 39.7568 19.6991 39.7568C8.97356 39.7568 0.278809 31.062 0.278809 20.3364C0.278809 9.61087 8.97356 0.916138 19.6991 0.916138ZM38.374 20.3364C38.374 10.0226 30.013 1.66149 19.6991 1.66149C18.8671 1.66149 18.048 1.71589 17.2448 1.82133C17.7637 1.77596 18.2889 1.7528 18.8195 1.7528C28.675 1.7528 36.6644 9.7422 36.6644 19.5976C36.6644 29.453 28.675 37.4424 18.8195 37.4424C9.48911 37.4424 1.83118 30.2815 1.04182 21.1557C1.47063 31.0894 9.65972 39.0113 19.6991 39.0113C30.013 39.0113 38.374 30.6503 38.374 20.3364ZM35.919 19.5976C35.919 10.1538 28.2633 2.49816 18.8195 2.49816C18.0528 2.49816 17.2977 2.54863 16.5576 2.64643C17.0133 2.60809 17.4744 2.58853 17.94 2.58853C26.9253 2.58853 34.2093 9.87259 34.2093 18.8578C34.2093 27.8432 26.9253 35.1272 17.94 35.1272C9.44417 35.1272 2.46931 28.6151 1.73467 20.3101C2.10818 29.4234 9.61448 36.6971 18.8195 36.6971C28.2633 36.6971 35.919 29.0413 35.919 19.5976ZM17.94 3.33389C26.5136 3.33389 33.464 10.2842 33.464 18.8578C33.464 27.4314 26.5136 34.3817 17.94 34.3817C9.56505 34.3817 2.73897 27.7497 2.42721 19.451C3.10031 26.9414 9.39487 32.8118 17.0606 32.8118C25.1751 32.8118 31.7534 26.2336 31.7534 18.119C31.7534 10.0043 25.1751 3.42612 17.0606 3.42612C16.6408 3.42612 16.225 3.44373 15.8142 3.47823C16.5092 3.38306 17.2189 3.33389 17.94 3.33389ZM31.008 18.119C31.008 10.416 24.7635 4.17148 17.0606 4.17148C16.4097 4.17148 15.7692 4.21605 15.1422 4.30232C15.4846 4.27552 15.8307 4.26187 16.18 4.26187C23.4246 4.26187 29.2974 10.1347 29.2974 17.3793C29.2974 24.6237 23.4246 30.4966 16.18 30.4966C9.36131 30.4966 3.75777 25.2938 3.12262 18.6415C3.39741 26.1024 9.53248 32.0665 17.0606 32.0665C24.7635 32.0665 31.008 25.822 31.008 18.119ZM16.18 5.00722C23.0129 5.00722 28.552 10.5464 28.552 17.3793C28.552 24.2121 23.0129 29.7513 16.18 29.7513C9.48175 29.7513 4.02676 24.4282 3.81444 17.7815C4.3879 23.6198 9.31151 28.1813 15.3005 28.1813C21.675 28.1813 26.8424 23.0138 26.8424 16.6394C26.8424 10.2651 21.675 5.0976 15.3005 5.0976C15.0082 5.0976 14.7184 5.10846 14.4315 5.12982C15.0028 5.04902 15.5865 5.00722 16.18 5.00722ZM26.097 16.6394C26.097 10.6767 21.2632 5.84296 15.3005 5.84296C14.7562 5.84296 14.2213 5.88323 13.6987 5.96097C13.9372 5.94388 14.1781 5.93519 14.4211 5.93519C19.9248 5.93519 24.3865 10.3969 24.3865 15.9006C24.3865 21.4044 19.9248 25.866 14.4211 25.866C9.26369 25.866 5.0214 21.9484 4.50775 16.9267C4.66003 22.7567 9.43382 27.436 15.3005 27.436C21.2632 27.436 26.097 22.6022 26.097 16.6394ZM14.4211 6.68055C19.5131 6.68055 23.6411 10.8085 23.6411 15.9006C23.6411 20.9928 19.5131 25.1207 14.4211 25.1207C9.3937 25.1207 5.30615 21.0972 5.20293 16.0946C5.66734 20.2888 9.22348 23.5508 13.5415 23.5508C18.1751 23.5508 21.9314 19.7945 21.9314 15.1609C21.9314 10.5273 18.1751 6.77092 13.5415 6.77092C13.3643 6.77092 13.1884 6.77641 13.0139 6.78724C13.4727 6.71699 13.9426 6.68055 14.4211 6.68055ZM21.1861 15.1609C21.1861 10.9389 17.7635 7.51628 13.5415 7.51628C13.1175 7.51628 12.7016 7.5508 12.2964 7.61717C12.4171 7.61081 12.5387 7.60759 12.661 7.60759C16.4245 7.60759 19.4754 10.6585 19.4754 14.422C19.4754 18.1855 16.4245 21.2365 12.661 21.2365C9.18108 21.2365 6.31038 18.6279 5.89754 15.2595C5.9504 19.4361 9.35248 22.8054 13.5415 22.8054C17.7635 22.8054 21.1861 19.3829 21.1861 15.1609ZM12.661 8.35294C16.0129 8.35294 18.7301 11.0701 18.7301 14.422C18.7301 17.7739 16.0129 20.4911 12.661 20.4911C9.30915 20.4911 6.59194 17.7739 6.59194 14.422C6.59194 14.414 6.59195 14.4059 6.59198 14.3979C6.94095 16.9522 9.13139 18.9203 11.7815 18.9203C14.6744 18.9203 17.0195 16.5752 17.0195 13.6823C17.0195 10.7893 14.6744 8.44426 11.7815 8.44426C11.7161 8.44426 11.651 8.44545 11.5861 8.44783C11.935 8.38548 12.2942 8.35294 12.661 8.35294ZM16.2741 13.6823C16.2741 11.2011 14.2628 9.18962 11.7815 9.18962C9.30029 9.18962 7.28886 11.2011 7.28886 13.6823C7.28886 16.1634 9.30029 18.1749 11.7815 18.1749C14.2628 18.1749 16.2741 16.1634 16.2741 13.6823Z" fill="#1A1414"/>
</g>
<defs>
<clipPath id="clip0_11_444">
<rect width="160.952" height="40" fill="white"/>
</clipPath>
</defs>
</svg>
