<svg width="78" height="40" viewBox="0 0 78 40" fill="none" xmlns="http://www.w3.org/2000/svg">
<path d="M20.063 19.6612L20.2219 19.6276H33.4364L38.4019 24.5931H24.9951L20.063 19.6612Z" fill="black"/>
<path d="M15.8088 19.6275L2.40186 19.6276L7.36736 24.5931H15.8087L15.8088 19.6275Z" fill="black"/>
<path d="M43.0161 5.36377H45.0754V11.7626H48.6123V13.4961H43.0161V5.36377Z" fill="black"/>
<path d="M52.3511 13.6706C51.6608 13.6706 51.0561 13.5465 50.536 13.2982C50.0164 13.0423 49.6131 12.6934 49.3261 12.2512C49.0468 11.8014 48.9072 11.2856 48.9072 10.7038C48.9072 10.1222 49.0468 9.61023 49.3261 9.16815C49.6131 8.71831 50.0164 8.36927 50.536 8.12111C51.0561 7.8651 51.6608 7.73715 52.3511 7.73715C53.0415 7.73715 53.6467 7.8651 54.1663 8.12111C54.6858 8.36927 55.0852 8.71831 55.3644 9.16815C55.6515 9.61023 55.795 10.1222 55.795 10.7038C55.795 11.2856 55.6515 11.8014 55.3644 12.2512C55.0852 12.6934 54.6858 13.0423 54.1663 13.2982C53.6467 13.5465 53.0415 13.6706 52.3511 13.6706ZM52.3511 12.0767C52.7622 12.0767 53.0882 11.9565 53.3285 11.7161C53.5766 11.4678 53.7007 11.1305 53.7007 10.7038C53.7007 10.2773 53.5766 9.94375 53.3285 9.70327C53.0882 9.45511 52.7622 9.33103 52.3511 9.33103C51.94 9.33103 51.6107 9.45511 51.3621 9.70327C51.1218 9.94375 51.0016 10.2773 51.0016 10.7038C51.0016 11.1305 51.1218 11.4678 51.3621 11.7161C51.6107 11.9565 51.94 12.0767 52.3511 12.0767Z" fill="black"/>
<path d="M59.6408 16.1719C59.2686 16.1719 58.8925 16.137 58.5121 16.0672C58.1399 15.9974 57.8184 15.9043 57.5469 15.788V14.3686C58.1594 14.6323 58.8575 14.7642 59.6408 14.7642C60.207 14.7642 60.6142 14.6478 60.8623 14.4151C61.1182 14.1825 61.2461 13.8413 61.2461 13.3914V13.0539C61.0214 13.2478 60.7422 13.3991 60.4089 13.5077C60.083 13.6163 59.7337 13.6706 59.3615 13.6706C58.7724 13.6706 58.2523 13.5465 57.8029 13.2982C57.3528 13.0502 57.0001 12.701 56.7437 12.2512C56.4956 11.8014 56.3716 11.2856 56.3716 10.7038C56.3716 10.1144 56.4956 9.59471 56.7437 9.14487C56.9924 8.69503 57.3411 8.34991 57.7912 8.10943C58.2406 7.86126 58.7569 7.73715 59.3381 7.73715C60.1375 7.73715 60.7967 7.98147 61.3162 8.47007V7.91166H63.2938V13.1122C63.2938 14.0817 62.9957 14.834 62.3982 15.3692C61.8085 15.9043 60.8896 16.1719 59.6408 16.1719ZM59.8733 12.0883C60.1915 12.0883 60.4746 12.0069 60.7227 11.844C60.9708 11.6811 61.1455 11.464 61.2461 11.1925V10.2153C61.1377 9.94375 60.9591 9.73047 60.711 9.57535C60.4629 9.41247 60.1837 9.33103 59.8733 9.33103C59.4549 9.33103 59.1173 9.45511 58.8614 9.70327C58.6055 9.94375 58.4776 10.2734 58.4776 10.6922C58.4776 11.1188 58.6055 11.4601 58.8614 11.7161C59.1173 11.9642 59.4549 12.0883 59.8733 12.0883Z" fill="black"/>
<path d="M67.2573 13.6706C66.567 13.6706 65.9618 13.5465 65.4422 13.2982C64.9227 13.0423 64.5194 12.6934 64.2324 12.2512C63.9531 11.8014 63.8135 11.2856 63.8135 10.7038C63.8135 10.1222 63.9531 9.61023 64.2324 9.16815C64.5194 8.71831 64.9227 8.36927 65.4422 8.12111C65.9618 7.8651 66.567 7.73715 67.2573 7.73715C67.9476 7.73715 68.5524 7.8651 69.0724 8.12111C69.592 8.36927 69.9914 8.71831 70.2707 9.16815C70.5577 9.61023 70.7012 10.1222 70.7012 10.7038C70.7012 11.2856 70.5577 11.8014 70.2707 12.2512C69.9914 12.6934 69.592 13.0423 69.0724 13.2982C68.5524 13.5465 67.9476 13.6706 67.2573 13.6706ZM67.2573 12.0767C67.6684 12.0767 67.9939 11.9565 68.2347 11.7161C68.4828 11.4678 68.6068 11.1305 68.6068 10.7038C68.6068 10.2773 68.4828 9.94375 68.2347 9.70327C67.9939 9.45511 67.6684 9.33103 67.2573 9.33103C66.8463 9.33103 66.5164 9.45511 66.2683 9.70327C66.028 9.94375 65.9078 10.2773 65.9078 10.7038C65.9078 11.1305 66.028 11.4678 66.2683 11.7161C66.5164 11.9565 66.8463 12.0767 67.2573 12.0767Z" fill="black"/>
<path d="M43.0161 16.4892H45.0754V24.6215H43.0161V16.4892Z" fill="black"/>
<path d="M46.1177 19.0371H48.0953V19.5955C48.6149 19.107 49.2746 18.8626 50.0734 18.8626C50.6547 18.8626 51.171 18.9867 51.6204 19.235C52.0704 19.4754 52.4192 19.8205 52.6678 20.2703C52.916 20.7124 53.04 21.2282 53.04 21.8177C53.04 22.3994 52.916 22.919 52.6678 23.3766C52.4192 23.8265 52.0704 24.1756 51.6204 24.4237C51.1787 24.6719 50.6625 24.796 50.0734 24.796C49.7007 24.796 49.3442 24.7378 49.0031 24.6215C48.6694 24.513 48.3902 24.3617 48.1654 24.1678V27.1694H46.1177V19.0371ZM49.5383 23.2022C49.9571 23.2022 50.2942 23.0781 50.5502 22.8298C50.806 22.5817 50.934 22.2442 50.934 21.8177C50.934 21.3911 50.806 21.0576 50.5502 20.8171C50.2942 20.569 49.9571 20.4449 49.5383 20.4449C49.2279 20.4449 48.9486 20.5263 48.7006 20.6892C48.4524 20.8442 48.2738 21.0576 48.1654 21.329V22.3179C48.2738 22.5894 48.4524 22.8066 48.7006 22.9694C48.9486 23.1246 49.2279 23.2022 49.5383 23.2022Z" fill="black"/>
<path d="M56.0929 24.796C55.6428 24.796 55.1733 24.7494 54.6849 24.6564C54.1965 24.5711 53.8082 24.447 53.5217 24.2842V22.7834C53.8393 22.9694 54.2193 23.1246 54.6616 23.2487C55.1116 23.365 55.5226 23.4232 55.8948 23.4232C56.1663 23.4232 56.3643 23.4038 56.4884 23.365C56.6124 23.3262 56.6741 23.2487 56.6741 23.1323C56.6741 23.0393 56.6319 22.9656 56.5462 22.9114C56.4689 22.8493 56.3215 22.7872 56.1045 22.7251C55.8948 22.6554 55.6506 22.5817 55.3713 22.5041C54.898 22.3645 54.5258 22.221 54.2544 22.0736C53.9829 21.9262 53.7815 21.7402 53.6497 21.5152C53.5178 21.2903 53.4517 21.0071 53.4517 20.6658C53.4517 20.061 53.6881 19.611 54.1614 19.3164C54.6421 19.0138 55.2979 18.8626 56.1273 18.8626C56.5306 18.8626 56.9534 18.9053 57.3957 18.9906C57.8457 19.0759 58.1828 19.1884 58.4081 19.328V20.8055C58.1749 20.6504 57.8651 20.5224 57.4774 20.4216C57.0969 20.3208 56.7403 20.2703 56.4065 20.2703C56.1429 20.2703 55.9377 20.2974 55.7902 20.3518C55.6428 20.3983 55.5694 20.4837 55.5694 20.6078C55.5694 20.7241 55.6428 20.8133 55.7902 20.8753C55.9377 20.9374 56.2013 21.015 56.5813 21.108C56.8293 21.17 56.9345 21.1972 56.8955 21.1894C57.3917 21.3213 57.7756 21.4686 58.047 21.6315C58.3185 21.7945 58.5087 21.9883 58.6172 22.2133C58.7335 22.4304 58.7919 22.7096 58.7919 23.0509C58.7919 23.5861 58.5593 24.0127 58.0937 24.3306C57.6359 24.6409 56.9689 24.796 56.0929 24.796Z" fill="black"/>
<path d="M61.8494 24.796C61.0817 24.796 60.5038 24.5827 60.1161 24.1561C59.7361 23.7295 59.5459 23.1673 59.5459 22.4692V19.0371H61.5936V22.2365C61.5936 22.8802 61.8845 23.2021 62.4658 23.2021C62.73 23.2021 62.9703 23.1401 63.1873 23.016C63.4048 22.8919 63.5828 22.7096 63.7224 22.4692V19.0371H65.7701V24.6215H63.7925V24.0165C63.5521 24.2725 63.2613 24.4664 62.9197 24.5982C62.5787 24.7301 62.2216 24.796 61.8494 24.796Z" fill="black"/>
<path d="M66.8184 19.0371H68.7147V19.6421C68.9472 19.3939 69.2148 19.2039 69.5174 19.072C69.82 18.9324 70.142 18.8626 70.4831 18.8626C70.9019 18.8626 71.2357 18.9246 71.4838 19.0487C71.7396 19.1729 71.9449 19.359 72.1001 19.6072C72.3327 19.3745 72.6158 19.1922 72.9496 19.0604C73.2828 18.9286 73.6204 18.8626 73.9614 18.8626C74.6985 18.8626 75.222 19.0526 75.5324 19.4326C75.8428 19.805 75.998 20.344 75.998 21.0498V24.6215H74.0432V21.3407C74.0432 21.0305 73.9848 20.8055 73.8685 20.6658C73.7523 20.5263 73.5581 20.4565 73.2867 20.4565C72.9379 20.4565 72.6548 20.5806 72.4378 20.8287C72.4456 20.9606 72.4495 21.1623 72.4495 21.4338V24.6215H70.4948V21.2593C70.4948 20.9722 70.4441 20.7667 70.3434 20.6426C70.2428 20.5186 70.0642 20.4565 69.8083 20.4565C69.4128 20.4565 69.0712 20.6775 68.7848 21.1196V24.6215H66.8184V19.0371Z" fill="black"/>
<path d="M20.222 19.6276L20.063 19.6613L24.9948 24.5931V38H20.7741L15.8086 33.0345H20.0293V19.6275H15.8086V15.407H20.0293V2L24.9948 6.96551V15.4069L20.0293 15.407V19.6275L20.222 19.6276Z" fill="#555555"/>
<path d="M33.4365 19.6276L38.402 24.5931V20.3724L33.4365 15.4069V19.6276Z" fill="#555555"/>
<path d="M43.3071 28.4388H46.3203C47.1734 28.4388 47.8364 28.6405 48.3098 29.0439C48.7904 29.4471 49.0313 30.0443 49.0313 30.8355C49.0313 31.6343 48.7943 32.2316 48.3215 32.6272C47.8481 33.0227 47.1811 33.2205 46.3203 33.2205H44.2146V36.5711H43.3071V28.4388ZM46.2506 32.4527C46.8323 32.4527 47.2902 32.3363 47.6234 32.1036C47.9571 31.8632 48.1234 31.4405 48.1234 30.8355C48.1234 30.2227 47.9571 29.8 47.6234 29.5674C47.2902 29.3269 46.8323 29.2067 46.2506 29.2067H44.2146V32.4527H46.2506Z" fill="#555555"/>
<path d="M50.1924 27.9734H51.088V36.5711H50.1924V27.9734Z" fill="#555555"/>
<path d="M54.9714 36.7457C54.2266 36.7457 53.6526 36.544 53.2492 36.1406C52.8537 35.7374 52.6562 35.1983 52.6562 34.5235V30.9867H53.5518V34.5701C53.5518 35.5474 54.0597 36.036 55.076 36.036C55.5027 36.036 55.8748 35.9429 56.193 35.7568C56.5185 35.5706 56.8094 35.2758 57.0653 34.8726V30.9867H57.9615V36.5711H57.0886V35.7334C56.5846 36.4082 55.8787 36.7457 54.9714 36.7457Z" fill="#555555"/>
<path d="M61.531 36.7457C61.1661 36.7457 60.7745 36.6914 60.3556 36.5828C59.9367 36.4819 59.6113 36.354 59.3783 36.1988V35.4427C59.6731 35.6211 60.0107 35.7645 60.3907 35.8731C60.7783 35.9817 61.1505 36.0359 61.5076 36.0359C61.9883 36.0359 62.3337 35.97 62.5429 35.8382C62.7603 35.6986 62.8688 35.4931 62.8688 35.2216C62.8688 35.0122 62.8221 34.8493 62.7292 34.733C62.6358 34.6088 62.4811 34.5003 62.2636 34.4072C62.0467 34.3141 61.7091 34.2055 61.2518 34.0815C60.8018 33.9574 60.4413 33.8294 60.1698 33.6975C59.9062 33.5579 59.7042 33.3834 59.5646 33.1739C59.425 32.9646 59.3555 32.697 59.3555 32.3712C59.3555 31.8671 59.5568 31.4831 59.9601 31.2195C60.3712 30.9479 60.9141 30.8123 61.5889 30.8123C61.9532 30.8123 62.2947 30.8471 62.613 30.9169C62.9384 30.979 63.2099 31.0682 63.4274 31.1846V31.9407C63.202 31.8167 62.9306 31.7197 62.613 31.6499C62.2947 31.5723 61.9649 31.5335 61.6239 31.5335C61.1739 31.5335 60.8329 31.5995 60.5998 31.7313C60.3673 31.8632 60.2511 32.0765 60.2511 32.3712C60.2511 32.5729 60.2899 32.728 60.3673 32.8366C60.453 32.9451 60.6037 33.046 60.8212 33.1391C61.0459 33.2244 61.4031 33.333 61.8915 33.4648C62.5896 33.6587 63.0741 33.8875 63.3455 34.1513C63.6248 34.4072 63.7644 34.764 63.7644 35.2216C63.7644 35.6947 63.5787 36.067 63.2059 36.3385C62.8416 36.6099 62.2831 36.7457 61.531 36.7457Z" fill="#555555"/>
</svg>
