<svg width="176" height="40" viewBox="0 0 176 40" fill="none" xmlns="http://www.w3.org/2000/svg">
<g clip-path="url(#clip0_11_455)">
<path d="M170.689 7.66415L174.863 11.8668C175.009 11.9829 175.117 12.1396 175.173 12.3171C175.258 13.3515 174.475 13.4081 173.675 13.4659C173.329 13.4909 172.98 13.5162 172.697 13.621C171.293 14.0009 170.041 14.8033 169.11 15.9193C168.178 17.0353 167.613 18.4109 167.49 19.8593C167.4 20.0266 167.264 20.1643 167.097 20.2558C166.931 20.3474 166.742 20.3888 166.552 20.3753C166.332 20.3558 166.126 20.2595 165.97 20.1032L164.6 18.7238C164.61 18.8182 164.61 18.9117 164.61 18.9869V19.8968C164.61 19.9543 164.612 20.0097 164.605 20.065C164.596 20.127 164.575 20.1888 164.526 20.2532V20.3377C164.526 20.3808 164.531 20.4209 164.536 20.4616C164.546 20.5449 164.557 20.6307 164.526 20.7505C164.496 20.8622 164.493 20.9925 164.489 21.1088C164.488 21.1779 164.486 21.2421 164.479 21.2945C164.469 21.3672 164.469 21.4448 164.463 21.5223C164.457 21.5949 164.445 21.6674 164.413 21.7354C164.369 21.8306 164.354 21.9215 164.35 22.0139C164.347 22.0581 164.347 22.1026 164.347 22.1482L164.291 22.439L162.162 32.5891L161.993 33.3489L161.927 34.4559L160.989 39.2495L160.839 40H84.9202L84.5543 39.6341L84.4886 39.9531H76.3648L71.8432 35.4034L72.2747 33.3489H69.7231L68.1378 31.7448C66.1703 33.1775 63.7888 33.9285 61.3554 33.8837C58.7396 33.9866 56.1895 33.0488 54.2635 31.2758L51.7963 28.7899L51.2616 31.2851C51.196 31.6416 51.1115 31.9794 51.0177 32.3077L50.9333 32.6173L50.7926 33.0675C50.781 33.1066 50.7653 33.1444 50.7457 33.1801C50.606 33.5937 50.44 33.9979 50.2485 34.3902C50.2535 34.4054 50.2535 34.4219 50.2485 34.4371C50.2239 34.4891 50.1957 34.5392 50.164 34.5872C50.0224 34.8675 49.8659 35.1399 49.695 35.4034C49.6633 35.4513 49.6351 35.5015 49.6106 35.5535L49.5074 35.666C49.2781 35.9949 49.0274 36.3082 48.7569 36.6041C48.6827 36.6783 48.6085 36.748 48.5331 36.8164C48.4561 36.8864 48.3779 36.9551 48.2972 37.0262L48.0909 37.2232C47.9608 37.3313 47.8277 37.4356 47.6918 37.5361C47.5797 37.619 47.4657 37.6992 47.3498 37.7767C45.4165 38.9222 43.1864 39.4674 40.9427 39.3433C37.847 39.3433 35.3704 38.4427 33.8038 36.8668L29.3948 32.4296C27.6337 33.4262 25.6396 33.9377 23.6162 33.9118C21.0083 33.9925 18.4736 33.042 16.5618 31.2664L14.0947 28.7805L13.2973 32.6173L13.1378 33.3771H4.83577L0.29541 28.7992L0.529931 27.6923L5.52056 3.72418L5.67062 2.97372H14.0008L14.2166 3.18013V2.97372H70.3423L70.5487 3.18013V2.97372H78.6725L83.2128 7.55158L82.9877 8.64913L82.7438 9.8499H85.0796L85.4455 10.2158C86.4733 9.61344 87.6407 9.29005 88.832 9.27769C89.708 9.26039 90.5779 9.42678 91.3857 9.76608C92.1936 10.1054 92.9214 10.61 93.5224 11.2476L93.4004 11.1069L95.6049 13.3302C96.9464 10.8068 99.9576 9.27769 104.047 9.27769C107.218 9.27769 109.554 10.0844 110.97 11.5478L112.565 13.152L113.1 10.5722L113.259 9.82173H121.392L123.719 12.1576L124.047 10.5816L124.207 9.83112H140.211L140.642 10.2627C141.726 9.62306 142.967 9.29818 144.226 9.32458C144.983 9.29503 145.737 9.43365 146.435 9.73047C147.132 10.0273 147.755 10.475 148.259 11.0413C148.233 11.0118 148.208 10.9823 148.183 10.9533C148.138 10.8995 148.093 10.847 148.045 10.7984L148.86 11.6135C149.57 10.8782 150.424 10.2959 151.367 9.90235C152.311 9.50877 153.325 9.3121 154.347 9.32458C154.89 9.2912 155.432 9.3374 155.958 9.46033L155.07 8.56473C154.949 8.43528 154.867 8.27421 154.834 8.10021C154.801 7.92621 154.818 7.74631 154.882 7.58147C154.947 7.41657 155.057 7.27343 155.2 7.16854C155.343 7.06365 155.512 7.00129 155.689 6.98875H156.402C156.594 6.97043 156.785 6.94226 156.974 6.9043C157.971 6.69474 158.909 6.26624 159.72 5.6497C160.532 5.03323 161.196 4.24418 161.665 3.33959C161.706 3.26962 161.743 3.19765 161.777 3.12384V3.07695C162.1 2.38215 162.296 1.63581 162.359 0.872416C162.375 0.635203 162.482 0.413106 162.656 0.251186C162.83 0.0892079 163.059 -0.00056984 163.297 2.72188e-06H163.372C163.514 0.0135152 163.652 0.0594347 163.774 0.134211C163.896 0.209045 163.999 0.310732 164.076 0.431543C164.751 1.08821 168.503 4.90617 168.503 4.90617C168.816 5.24238 168.793 5.67885 168.769 6.12046C168.754 6.39352 168.739 6.66858 168.803 6.92308C168.974 6.95371 169.147 6.9769 169.319 6.99259C169.485 7.00753 169.651 7.01566 169.817 7.01687C170.011 7.02093 170.2 7.0854 170.356 7.2014C170.512 7.31735 170.629 7.4791 170.689 7.66415Z" fill="black"/>
<path d="M43.2316 10.7505H49.1603L45.8395 26.5009C45.2298 29.484 44.0665 31.1914 42.3029 32.4015C40.5191 33.4366 38.4708 33.9258 36.4118 33.8086C32.4906 33.8086 28.7288 32.167 28.3536 28.1801H34.3198C34.5074 29.1182 35.3705 29.6529 36.6838 29.6529C38.4568 29.6529 39.2729 28.5835 39.6388 26.9043L39.9952 25.1688H39.8639C39.3404 25.7443 38.7054 26.2073 37.9975 26.5298C37.2895 26.8523 36.5235 27.0276 35.7457 27.045C32.2936 27.045 29.5543 24.2964 29.6106 20.272C29.6857 15.5816 32.7438 10.2533 37.8752 10.2533C38.8476 10.1878 39.8184 10.4021 40.6729 10.8709C41.5274 11.3396 42.2297 12.0433 42.6969 12.8987H42.8001L43.2316 10.7505ZM38.1378 22.6454C40.4174 22.6454 41.6838 20.0188 41.7213 17.758C41.7213 16.2477 41.1303 14.6998 39.3855 14.6998C37.0027 14.6998 35.7926 17.3546 35.7551 19.6341C35.7551 21.1726 36.3461 22.6454 38.0909 22.6454M104.696 23.152C104.696 24.1557 103.832 24.5591 102.697 24.5591C100.821 24.5591 100.192 23.621 100.183 22.3077H94.2823C94.1791 27.2045 98.5506 28.4146 102.435 28.4146C107.397 28.4146 110.615 26.2664 110.681 21.9794C110.681 18.5553 107.763 17.5141 104.893 16.848C102.688 16.3415 101.722 15.9756 101.731 15.1407C101.741 14.3058 102.726 13.9681 103.692 13.9681C104.902 13.9681 105.727 14.3996 105.812 15.5066H111.544C111.478 11.4165 107.791 10.2158 104.039 10.2158C99.4793 10.2158 95.9239 12.2889 95.8676 16.2101C95.8676 19.2964 97.9502 20.4315 101.093 21.2383C103.11 21.773 104.714 21.9418 104.696 23.152ZM148.532 13.2927H148.429C148.174 12.3689 147.61 11.5602 146.832 11.0005C146.054 10.4409 145.108 10.164 144.151 10.2158C141.6 10.2158 140.043 11.4822 138.57 13.3959H138.467L139.011 10.7505H133.044L129.47 27.8424H135.709L137.585 18.621C138.016 16.6135 139.039 15.2064 140.587 15.2064C142.135 15.2064 142.341 16.4446 142.022 17.955L139.958 27.8424H146.196L148.073 18.621C148.504 16.4822 149.527 15.2064 151.074 15.2064C152.622 15.2064 152.829 16.379 152.51 17.955L150.446 27.8424H156.684L158.917 17.6829C159.855 13.3959 158.42 10.1782 154.302 10.1782C153.156 10.1735 152.028 10.4561 151.02 11.0002C150.012 11.5443 149.157 12.3325 148.532 13.2927ZM1.43994 27.8424H7.88459L12.8658 3.8743H6.43056L1.43994 27.8424ZM20.8395 10.2439C25.1922 10.2439 29.348 12.6266 29.2823 18.0206C29.226 23.9212 25.211 28.3396 19.0759 28.3396C14.8545 28.3396 10.6332 25.9944 10.7082 20.6285C10.8114 14.8687 14.7701 10.2439 20.8395 10.2439ZM19.2542 24.1557C22.0028 24.1557 23.0065 20.1688 23.0065 17.8236C23.0065 16.1445 22.4906 14.5028 20.68 14.5028C17.9596 14.5028 17.0309 18.7242 17.0309 20.9006C17.0309 22.6454 17.5187 24.1557 19.2917 24.1557M15.014 3.8743L14.0759 8.66792H68.1941L69.1322 3.8743H15.014ZM58.5412 10.2439C62.8939 10.2439 67.0496 12.6266 66.984 18.0206C66.9277 23.9212 62.9033 28.3396 56.7682 28.3396C52.5468 28.3396 48.3254 25.9944 48.4099 20.6285C48.5412 14.8687 52.4999 10.2439 58.5412 10.2439ZM56.984 24.1557C59.7326 24.1557 60.7363 20.1688 60.7363 17.8236C60.7363 16.1445 60.211 14.5028 58.4005 14.5028C55.6894 14.5028 54.7513 18.7242 54.7513 20.9006C54.7513 22.6454 55.2391 24.1557 57.0215 24.1557M71.3461 3.8743L70.408 8.66792H76.6369L77.575 3.8743H71.3461ZM66.3555 27.8424H72.5937L76.1678 10.7505H69.892L66.3555 27.8424ZM86.2616 28.4146C85.2688 28.4851 84.2759 28.2776 83.3943 27.8153C82.5128 27.353 81.7775 26.6542 81.271 25.7974H81.1678L79.2917 34.4465H72.9783L78.044 10.7505H83.9727L83.5037 13.03C84.1228 12.188 84.9248 11.4973 85.8493 11.0098C86.7738 10.5224 87.7968 10.2509 88.8414 10.2158C92.5937 10.2158 94.7982 13.4334 94.7326 17.6173C94.6481 22.8799 91.9183 28.4146 86.2241 28.4146H86.2616ZM86.0177 15.0563C83.6069 15.0563 82.1247 18.1426 82.0872 20.516C82.0872 22.167 82.6688 24.0056 84.6481 24.0056C87.2279 24.0056 88.2879 20.591 88.316 18.3114C88.316 16.7636 87.8658 15.0563 86.0177 15.0563ZM122.088 25.1501H122.191L121.647 27.8612H127.575L131.15 10.7692H124.921L122.932 20.3189C122.529 22.2983 121.309 23.3396 119.771 23.3396C118.232 23.3396 117.894 21.8949 118.204 20.3846L120.221 10.7692H113.992L111.787 21.3227C110.849 25.9193 112.988 28.3959 116.572 28.3959C117.697 28.3849 118.8 28.0774 119.768 27.5042C120.736 26.931 121.537 26.1125 122.088 25.1313V25.1501ZM155.549 34.531L156.487 29.7373H82.5093L81.5712 34.531H155.549Z" fill="white"/>
<path d="M162.255 15.4409C162.194 15.4362 162.134 15.4193 162.079 15.3912C162.023 15.3632 161.974 15.3245 161.934 15.2774C161.894 15.2303 161.864 15.1758 161.845 15.1169C161.826 15.058 161.819 14.996 161.824 14.9343C161.902 14.0989 161.803 13.2563 161.533 12.4619C161.263 11.6675 160.828 10.939 160.256 10.3244C159.685 9.70976 158.99 9.22274 158.218 8.89524C157.445 8.56775 156.612 8.40717 155.773 8.42403C155.649 8.42403 155.53 8.37462 155.442 8.28665C155.354 8.19869 155.304 8.07938 155.304 7.95498C155.304 7.83058 155.354 7.71129 155.442 7.62333C155.53 7.53536 155.649 7.48594 155.773 7.48594C155.998 7.50048 156.224 7.50048 156.449 7.48594C158.115 7.30843 159.667 6.55564 160.838 5.35711C162.01 4.15858 162.726 2.58928 162.865 0.919337C162.875 0.801554 162.928 0.691688 163.015 0.611685C163.102 0.531683 163.216 0.487447 163.334 0.487826C163.396 0.492561 163.456 0.509449 163.511 0.53751C163.566 0.565571 163.615 0.604254 163.655 0.651335C163.696 0.698417 163.726 0.752963 163.745 0.811839C163.764 0.870715 163.771 0.932751 163.766 0.994386C163.688 1.82905 163.787 2.6708 164.056 3.46458C164.326 4.25835 164.76 4.98628 165.33 5.60078C165.901 6.21527 166.594 6.70249 167.365 7.03058C168.137 7.35867 168.969 7.52023 169.807 7.5047C169.931 7.5047 170.051 7.55413 170.139 7.64209C170.227 7.73005 170.276 7.84935 170.276 7.97375C170.276 8.09815 170.227 8.21746 170.139 8.30542C170.051 8.39338 169.931 8.44279 169.807 8.44279C168.025 8.47223 166.316 9.15877 165.009 10.3707C163.702 11.5826 162.888 13.2345 162.725 15.0094C162.715 15.1272 162.662 15.2371 162.575 15.3171C162.488 15.3971 162.374 15.4413 162.255 15.4409Z" fill="white"/>
</g>
<defs>
<clipPath id="clip0_11_455">
<rect width="175" height="40" fill="white" transform="translate(0.29541)"/>
</clipPath>
</defs>
</svg>
