<svg width="215" height="40" viewBox="0 0 215 40" fill="none" xmlns="http://www.w3.org/2000/svg">
<g clip-path="url(#clip0_11_470)">
<path d="M14.6732 33.0593C10.5543 37.1782 3.57855 37.1618 1.63041 31.6723C1.24899 30.5975 0.944029 29.4924 0.719732 28.3648C-0.196065 23.7607 0.273956 18.9886 2.07036 14.6516C3.86676 10.3148 6.90886 6.60794 10.812 3.99997C14.7151 1.392 19.3039 -2.01083e-07 23.9982 0C28.6924 2.01083e-07 33.2812 1.392 37.1842 3.99997C41.0874 6.60794 44.1295 10.3148 45.9259 14.6517C47.7223 18.9886 48.1922 23.7607 47.2765 28.3648C47.0522 29.4924 46.7473 30.5975 46.3657 31.6723C44.4176 37.1618 37.4419 37.1782 33.323 33.0593L26.9649 26.7012C26.3575 26.0938 26.4202 25.092 26.5878 24.2495C26.6896 23.7374 26.6373 23.2065 26.4375 22.724C26.2376 22.2415 25.8993 21.8291 25.4651 21.539C25.0308 21.249 24.5204 21.0941 23.9982 21.0941C23.4759 21.0941 22.9655 21.249 22.5313 21.539C22.0969 21.8291 21.7586 22.2415 21.5587 22.724C21.3588 23.2065 21.3066 23.7374 21.4085 24.2495C21.5761 25.092 21.6387 26.0938 21.0313 26.7012L14.6732 33.0593Z" fill="url(#paint0_linear_11_470)"/>
<path d="M67.0422 27.361H73.4219V31.1205H62.1719V11.1266H67.0422V27.361Z" fill="#575757"/>
<path d="M82.125 31.3484C80.568 31.3484 79.1629 31.0162 77.9097 30.3516C76.6756 29.687 75.6977 28.7377 74.9762 27.5035C74.2737 26.2693 73.9224 24.8262 73.9224 23.1742C73.9224 21.5414 74.2831 20.1077 75.0046 18.8735C75.7262 17.6204 76.7135 16.6615 77.9666 15.997C79.2199 15.3324 80.625 15.0002 82.182 15.0002C83.7389 15.0002 85.144 15.3324 86.3971 15.997C87.6504 16.6615 88.6377 17.6204 89.3592 18.8735C90.0807 20.1077 90.4415 21.5414 90.4415 23.1742C90.4415 24.8072 90.0712 26.2502 89.3308 27.5035C88.6093 28.7377 87.6124 29.687 86.3402 30.3516C85.0871 31.0162 83.6819 31.3484 82.125 31.3484ZM82.125 27.1331C83.0553 27.1331 83.8433 26.7915 84.489 26.1079C85.1535 25.4243 85.4858 24.4465 85.4858 23.1742C85.4858 21.9021 85.1629 20.9243 84.5174 20.2407C83.8908 19.5571 83.1123 19.2153 82.182 19.2153C81.2326 19.2153 80.4446 19.5571 79.8179 20.2407C79.1913 20.9053 78.8781 21.883 78.8781 23.1742C78.8781 24.4465 79.182 25.4243 79.7895 26.1079C80.4162 26.7915 81.1946 27.1331 82.125 27.1331Z" fill="#575757"/>
<path d="M98.209 15.0002C99.3293 15.0002 100.307 15.228 101.143 15.6837C101.997 16.1393 102.652 16.7375 103.108 17.4779V15.228H107.978V31.092C107.978 32.5541 107.684 33.8738 107.095 35.0509C106.526 36.2472 105.643 37.1966 104.446 37.899C103.269 38.6017 101.798 38.953 100.032 38.953C97.6774 38.953 95.7691 38.3928 94.307 37.2726C92.8451 36.1712 92.0095 34.6712 91.8007 32.7724H96.6141C96.7659 33.38 97.1268 33.8548 97.6964 34.1966C98.2659 34.5573 98.9686 34.7377 99.804 34.7377C100.81 34.7377 101.608 34.4433 102.196 33.8548C102.804 33.2851 103.108 32.3643 103.108 31.092V28.8421C102.633 29.5825 101.978 30.1902 101.143 30.6648C100.307 31.1206 99.3293 31.3484 98.209 31.3484C96.8989 31.3484 95.7121 31.0162 94.6488 30.3516C93.5855 29.668 92.7406 28.7091 92.1141 27.4749C91.5065 26.2218 91.2026 24.7788 91.2026 23.1458C91.2026 21.5128 91.5065 20.0793 92.1141 18.8451C92.7406 17.6109 93.5855 16.6615 94.6488 15.997C95.7121 15.3324 96.8989 15.0002 98.209 15.0002ZM103.108 23.1742C103.108 21.959 102.766 21.0002 102.082 20.2977C101.418 19.5952 100.601 19.2439 99.6331 19.2439C98.6647 19.2439 97.8388 19.5952 97.1552 20.2977C96.4906 20.9813 96.1584 21.9306 96.1584 23.1458C96.1584 24.361 96.4906 25.3294 97.1552 26.0509C97.8388 26.7534 98.6647 27.1047 99.6331 27.1047C100.601 27.1047 101.418 26.7534 102.082 26.0509C102.766 25.3483 103.108 24.3895 103.108 23.1742Z" fill="#575757"/>
<path d="M117.881 31.3484C116.324 31.3484 114.919 31.0162 113.666 30.3516C112.432 29.687 111.454 28.7377 110.733 27.5035C110.03 26.2693 109.679 24.8262 109.679 23.1742C109.679 21.5414 110.039 20.1077 110.761 18.8735C111.483 17.6204 112.47 16.6615 113.723 15.997C114.976 15.3324 116.381 15.0002 117.938 15.0002C119.495 15.0002 120.9 15.3324 122.153 15.997C123.407 16.6615 124.394 17.6204 125.116 18.8735C125.837 20.1077 126.198 21.5414 126.198 23.1742C126.198 24.8072 125.828 26.2502 125.087 27.5035C124.366 28.7377 123.369 29.687 122.097 30.3516C120.843 31.0162 119.438 31.3484 117.881 31.3484ZM117.881 27.1331C118.812 27.1331 119.6 26.7915 120.245 26.1079C120.91 25.4243 121.242 24.4465 121.242 23.1742C121.242 21.9021 120.919 20.9243 120.274 20.2407C119.647 19.5571 118.869 19.2153 117.938 19.2153C116.989 19.2153 116.201 19.5571 115.574 20.2407C114.948 20.9053 114.634 21.883 114.634 23.1742C114.634 24.4465 114.938 25.4243 115.546 26.1079C116.173 26.7915 116.951 27.1331 117.881 27.1331Z" fill="#575757"/>
<path d="M130.376 13.5761C129.522 13.5761 128.819 13.3292 128.269 12.8355C127.737 12.3229 127.471 11.6963 127.471 10.9558C127.471 10.1963 127.737 9.56968 128.269 9.076C128.819 8.56334 129.522 8.30701 130.376 8.30701C131.212 8.30701 131.895 8.56334 132.427 9.076C132.978 9.56968 133.253 10.1963 133.253 10.9558C133.253 11.6963 132.978 12.3229 132.427 12.8355C131.895 13.3292 131.212 13.5761 130.376 13.5761ZM132.797 15.228V31.1206H127.927V15.228H132.797Z" fill="#575757"/>
<path d="M140.342 17.4779C140.817 16.7375 141.472 16.1393 142.308 15.6837C143.143 15.228 144.121 15.0002 145.241 15.0002C146.552 15.0002 147.738 15.3324 148.801 15.997C149.865 16.6615 150.701 17.6109 151.308 18.8451C151.934 20.0793 152.248 21.5128 152.248 23.1458C152.248 24.7788 151.934 26.2218 151.308 27.4749C150.701 28.7091 149.865 29.668 148.801 30.3516C147.738 31.0162 146.552 31.3484 145.241 31.3484C144.139 31.3484 143.163 31.1206 142.308 30.6648C141.472 30.2091 140.817 29.6206 140.342 28.899V38.6966H135.472V15.228H140.342V17.4779ZM147.292 23.1458C147.292 21.9306 146.95 20.9813 146.266 20.2977C145.601 19.5952 144.777 19.2439 143.789 19.2439C142.821 19.2439 141.995 19.5952 141.31 20.2977C140.647 21.0002 140.315 21.959 140.315 23.1742C140.315 24.3895 140.647 25.3483 141.31 26.0509C141.995 26.7534 142.821 27.1047 143.789 27.1047C144.757 27.1047 145.583 26.7534 146.266 26.0509C146.95 25.3294 147.292 24.361 147.292 23.1458Z" fill="#575757"/>
<path d="M160.414 31.3484C159.028 31.3484 157.794 31.111 156.711 30.6364C155.629 30.1617 154.774 29.5162 154.148 28.6996C153.522 27.8642 153.17 26.9338 153.094 25.9084H157.908C157.965 26.459 158.221 26.9053 158.676 27.2471C159.133 27.5888 159.693 27.7597 160.358 27.7597C160.965 27.7597 161.429 27.6458 161.752 27.4179C162.094 27.1712 162.265 26.8578 162.265 26.4781C162.265 26.0224 162.028 25.6901 161.554 25.4813C161.079 25.2534 160.309 25.0066 159.246 24.7407C158.107 24.4749 157.158 24.1996 156.398 23.9148C155.639 23.611 154.984 23.1458 154.434 22.5192C153.882 21.8737 153.607 21.0097 153.607 19.9275C153.607 19.016 153.854 18.1901 154.348 17.4495C154.86 16.6901 155.6 16.0919 156.569 15.6552C157.556 15.2185 158.725 15.0002 160.072 15.0002C162.065 15.0002 163.632 15.4938 164.771 16.4811C165.93 17.4686 166.595 18.7786 166.766 20.4116H162.265C162.189 19.861 161.943 19.4243 161.525 19.1014C161.126 18.7786 160.595 18.6173 159.93 18.6173C159.36 18.6173 158.923 18.7312 158.62 18.959C158.316 19.1679 158.165 19.4622 158.165 19.8419C158.165 20.2977 158.402 20.6395 158.876 20.8673C159.37 21.0952 160.129 21.323 161.155 21.5508C162.331 21.8546 163.29 22.1585 164.031 22.4622C164.771 22.7471 165.417 23.2217 165.967 23.8864C166.537 24.5319 166.832 25.4053 166.851 26.5066C166.851 27.437 166.585 28.2724 166.053 29.013C165.541 29.7345 164.791 30.3042 163.803 30.7218C162.835 31.1396 161.705 31.3484 160.414 31.3484Z" fill="#575757"/>
<path d="M184.669 15.228V31.1205H179.799V28.956C179.305 29.6585 178.631 30.2281 177.777 30.6648C176.941 31.0826 176.011 31.2914 174.985 31.2914C173.77 31.2914 172.697 31.0257 171.767 30.4939C170.836 29.9433 170.115 29.1553 169.603 28.1301C169.09 27.1047 168.833 25.899 168.833 24.5128V15.228H173.675V23.8578C173.675 24.9211 173.951 25.747 174.501 26.3357C175.051 26.9243 175.792 27.2186 176.723 27.2186C177.672 27.2186 178.422 26.9243 178.973 26.3357C179.523 25.747 179.799 24.9211 179.799 23.8578V15.228H184.669Z" fill="#575757"/>
<path d="M207.592 15.0571C209.566 15.0571 211.133 15.6552 212.291 16.8514C213.468 18.0476 214.057 19.709 214.057 21.8356V31.1205H209.216V22.4908C209.216 21.4654 208.94 20.6774 208.389 20.1268C207.857 19.5571 207.118 19.2723 206.167 19.2723C205.218 19.2723 204.468 19.5571 203.918 20.1268C203.387 20.6774 203.12 21.4654 203.12 22.4908V31.1205H198.278V22.4908C198.278 21.4654 198.003 20.6774 197.453 20.1268C196.92 19.5571 196.18 19.2723 195.231 19.2723C194.282 19.2723 193.531 19.5571 192.981 20.1268C192.449 20.6774 192.184 21.4654 192.184 22.4908V31.1205H187.313V15.228H192.184V17.2216C192.678 16.5571 193.323 16.0349 194.12 15.6552C194.918 15.2564 195.82 15.0571 196.825 15.0571C198.022 15.0571 199.086 15.3134 200.016 15.8261C200.965 16.3388 201.705 17.0698 202.238 18.0192C202.788 17.1457 203.538 16.4336 204.487 15.883C205.436 15.3324 206.472 15.0571 207.592 15.0571Z" fill="#575757"/>
</g>
<defs>
<linearGradient id="paint0_linear_11_470" x1="23.9981" y1="0" x2="23.9981" y2="35.9882" gradientUnits="userSpaceOnUse">
<stop stop-color="#353535"/>
<stop offset="0.505208" stop-color="#353535" stop-opacity="0.494792"/>
<stop offset="1" stop-color="#353535" stop-opacity="0.94"/>
</linearGradient>
<clipPath id="clip0_11_470">
<rect width="213.793" height="40" fill="white" transform="translate(0.263672)"/>
</clipPath>
</defs>
</svg>
