<svg width="130" height="37" viewBox="0 0 130 37" fill="none" xmlns="http://www.w3.org/2000/svg">
<path d="M34.2517 26.875C33.0951 26.875 32.0486 26.6822 31.1123 26.2967C30.1759 25.8928 29.3773 25.3512 28.7164 24.6719C28.0555 23.9742 27.5414 23.1848 27.1742 22.3035C26.8254 21.4039 26.651 20.4584 26.651 19.467C26.651 18.0901 26.9539 16.8325 27.5598 15.6942C28.184 14.5559 29.0652 13.6472 30.2035 12.9679C31.3601 12.2702 32.7187 11.9214 34.2792 11.9214C35.8581 11.9214 37.2075 12.2702 38.3274 12.9679C39.4474 13.6472 40.3011 14.5559 40.8886 15.6942C41.4944 16.8141 41.7973 18.0258 41.7973 19.3293C41.7973 19.5497 41.7882 19.7792 41.7698 20.0178C41.7514 20.2381 41.7331 20.4217 41.7147 20.5686H30.5615C30.6349 21.303 30.8461 21.9455 31.1949 22.4963C31.5621 23.0471 32.021 23.4694 32.5718 23.7631C33.141 24.0385 33.7468 24.1762 34.3894 24.1762C35.1238 24.1762 35.8122 24.0018 36.4548 23.653C37.1157 23.2858 37.5655 22.8084 37.8042 22.2209L40.9712 23.1022C40.6224 23.8365 40.1175 24.4883 39.4565 25.0574C38.814 25.6266 38.0521 26.0764 37.1708 26.4068C36.2896 26.7189 35.3165 26.875 34.2517 26.875ZM30.4789 18.2278H38.0245C37.9511 17.4934 37.74 16.86 37.3911 16.3276C37.0607 15.7768 36.62 15.3546 36.0693 15.0608C35.5185 14.7487 34.9035 14.5927 34.2242 14.5927C33.5632 14.5927 32.9574 14.7487 32.4066 15.0608C31.8742 15.3546 31.4336 15.7768 31.0847 16.3276C30.7543 16.86 30.5523 17.4934 30.4789 18.2278ZM52.252 26.875C51.1504 26.875 50.1682 26.6271 49.3053 26.1314C48.4425 25.6357 47.7632 24.9565 47.2675 24.0936V26.5996H44.0454V6.49624H47.7356V14.7028C48.2497 13.8399 48.9198 13.1606 49.746 12.6649C50.5905 12.1692 51.5727 11.9214 52.6926 11.9214C53.6289 11.9214 54.4826 12.1233 55.2537 12.5272C56.0248 12.9128 56.6858 13.4544 57.2365 14.152C57.8057 14.8497 58.2371 15.6483 58.5309 16.5479C58.843 17.4475 58.999 18.4114 58.999 19.4395C58.999 20.4676 58.8246 21.4315 58.4758 22.3311C58.1453 23.2307 57.6772 24.0293 57.0713 24.727C56.4654 25.4063 55.7494 25.9387 54.9233 26.3242C54.1155 26.6914 53.225 26.875 52.252 26.875ZM51.2331 23.7356C51.8206 23.7356 52.353 23.6254 52.8303 23.4051C53.326 23.1664 53.7483 22.8543 54.0971 22.4688C54.4643 22.0832 54.7397 21.6334 54.9233 21.1194C55.1252 20.587 55.2262 20.0362 55.2262 19.467C55.2262 18.6776 55.061 17.9524 54.7305 17.2915C54.4184 16.6122 53.9778 16.0706 53.4086 15.6667C52.8579 15.2628 52.2061 15.0608 51.4534 15.0608C50.921 15.0608 50.4069 15.1893 49.9112 15.4464C49.4339 15.685 49.0024 16.0155 48.6169 16.4378C48.2497 16.86 47.9559 17.3374 47.7356 17.8698V21.3121C47.8458 21.6793 48.0202 22.0098 48.2589 22.3035C48.5159 22.5973 48.8096 22.8543 49.1401 23.0746C49.4706 23.2766 49.8102 23.4418 50.159 23.5703C50.5262 23.6805 50.8842 23.7356 51.2331 23.7356ZM73.291 12.1692C73.1625 12.0407 72.9239 11.8663 72.575 11.646C72.2446 11.4257 71.8315 11.2146 71.3358 11.0126C70.8584 10.8107 70.3352 10.6362 69.7661 10.4894C69.1969 10.3241 68.6186 10.2415 68.0311 10.2415C67.003 10.2415 66.2227 10.4343 65.6903 10.8198C65.1763 11.2054 64.9192 11.747 64.9192 12.4446C64.9192 12.9771 65.0845 13.3993 65.4149 13.7114C65.7454 14.0235 66.2411 14.2897 66.902 14.51C67.563 14.7304 68.3891 14.969 69.3805 15.2261C70.6657 15.5382 71.7764 15.9237 72.7127 16.3827C73.6674 16.8233 74.3926 17.4108 74.8883 18.1452C75.4024 18.8612 75.6594 19.8159 75.6594 21.0092C75.6594 22.0557 75.4666 22.9553 75.0811 23.708C74.6955 24.4424 74.1631 25.0391 73.4838 25.4981C72.8045 25.957 72.0334 26.2967 71.1706 26.517C70.3077 26.7189 69.3897 26.8199 68.4167 26.8199C67.4436 26.8199 66.4706 26.7189 65.4975 26.517C64.5245 26.315 63.5882 26.0305 62.6886 25.6633C61.789 25.2777 60.9628 24.8188 60.2101 24.2863L61.89 21.0092C62.0552 21.1745 62.3489 21.3948 62.7712 21.6702C63.1935 21.9272 63.7075 22.1934 64.3134 22.4688C64.9192 22.7258 65.5802 22.9461 66.2962 23.1297C67.0122 23.3133 67.7374 23.4051 68.4717 23.4051C69.4999 23.4051 70.2801 23.2307 70.8125 22.8819C71.345 22.533 71.6112 22.0373 71.6112 21.3948C71.6112 20.8073 71.4 20.3483 70.9778 20.0178C70.5555 19.6874 69.968 19.4028 69.2153 19.1641C68.4626 18.9071 67.5721 18.6317 66.544 18.338C65.314 17.9891 64.2858 17.6036 63.4597 17.1813C62.6335 16.7407 62.0185 16.1899 61.6146 15.529C61.2107 14.8681 61.0087 14.0419 61.0087 13.0505C61.0087 11.7103 61.3208 10.5904 61.945 9.69075C62.5876 8.77279 63.4505 8.08431 64.5337 7.62533C65.6169 7.14799 66.8194 6.90932 68.1413 6.90932C69.0592 6.90932 69.9221 7.0103 70.7299 7.21225C71.5561 7.4142 72.3272 7.68041 73.0432 8.01088C73.7592 8.34134 74.4018 8.69935 74.9709 9.08489L73.291 12.1692ZM86.7397 26.875C85.6198 26.875 84.6284 26.6271 83.7655 26.1314C82.921 25.6174 82.26 24.9289 81.7827 24.066V32.4654H78.0925V12.1692H81.3145V14.6477C81.8653 13.8032 82.563 13.1423 83.4075 12.6649C84.252 12.1692 85.2159 11.9214 86.2991 11.9214C87.2721 11.9214 88.1625 12.1142 88.9703 12.4997C89.7965 12.8853 90.5125 13.4269 91.1184 14.1245C91.7242 14.8038 92.1924 15.5932 92.5229 16.4928C92.8717 17.3741 93.0461 18.3288 93.0461 19.3569C93.0461 20.7522 92.7707 22.019 92.2199 23.1573C91.6875 24.2955 90.944 25.2043 89.9893 25.8836C89.053 26.5445 87.9698 26.875 86.7397 26.875ZM85.5004 23.7356C86.0696 23.7356 86.5836 23.6162 87.0426 23.3776C87.5016 23.1389 87.8963 22.8176 88.2268 22.4137C88.5756 21.9914 88.8326 21.5233 88.9979 21.0092C89.1815 20.4768 89.2733 19.926 89.2733 19.3569C89.2733 18.751 89.1723 18.1911 88.9703 17.677C88.7867 17.163 88.5114 16.7132 88.1442 16.3276C87.777 15.9237 87.3455 15.6116 86.8498 15.3913C86.3725 15.171 85.8493 15.0608 85.2801 15.0608C84.9313 15.0608 84.5733 15.1251 84.2061 15.2536C83.8573 15.3638 83.5176 15.529 83.1872 15.7493C82.8567 15.9696 82.563 16.2266 82.3059 16.5204C82.0673 16.8141 81.8929 17.1354 81.7827 17.4842V20.8715C82.003 21.4039 82.2968 21.8905 82.6639 22.3311C83.0495 22.7717 83.4901 23.1205 83.9858 23.3776C84.4815 23.6162 84.9864 23.7356 85.5004 23.7356ZM102.211 26.875C101.036 26.875 99.9801 26.6822 99.0438 26.2967C98.1074 25.8928 97.3088 25.342 96.6479 24.6444C96.0053 23.9467 95.5096 23.1481 95.1608 22.2485C94.8119 21.3489 94.6375 20.4034 94.6375 19.412C94.6375 18.4022 94.8119 17.4475 95.1608 16.5479C95.5096 15.6483 96.0053 14.8497 96.6479 14.152C97.3088 13.4544 98.1074 12.9128 99.0438 12.5272C99.9801 12.1233 101.036 11.9214 102.211 11.9214C103.386 11.9214 104.432 12.1233 105.35 12.5272C106.286 12.9128 107.085 13.4544 107.746 14.152C108.407 14.8497 108.903 15.6483 109.233 16.5479C109.582 17.4475 109.756 18.4022 109.756 19.412C109.756 20.4034 109.582 21.3489 109.233 22.2485C108.903 23.1481 108.407 23.9467 107.746 24.6444C107.103 25.342 106.314 25.8928 105.378 26.2967C104.441 26.6822 103.386 26.875 102.211 26.875ZM98.4379 19.412C98.4379 20.2565 98.6031 21.0092 98.9336 21.6702C99.2641 22.3127 99.7139 22.8176 100.283 23.1848C100.852 23.552 101.495 23.7356 102.211 23.7356C102.908 23.7356 103.542 23.552 104.111 23.1848C104.68 22.7992 105.13 22.2852 105.46 21.6426C105.809 20.9817 105.984 20.229 105.984 19.3844C105.984 18.5583 105.809 17.8147 105.46 17.1538C105.13 16.4928 104.68 15.9788 104.111 15.6116C103.542 15.2444 102.908 15.0608 102.211 15.0608C101.495 15.0608 100.852 15.2536 100.283 15.6391C99.7139 16.0063 99.2641 16.5204 98.9336 17.1813C98.6031 17.8239 98.4379 18.5674 98.4379 19.412ZM120.679 25.8561C120.367 25.9846 119.991 26.1314 119.55 26.2967C119.109 26.4619 118.632 26.5904 118.118 26.6822C117.622 26.7924 117.117 26.8475 116.603 26.8475C115.924 26.8475 115.3 26.7281 114.731 26.4895C114.162 26.2508 113.703 25.8744 113.354 25.3604C113.023 24.8279 112.858 24.1395 112.858 23.2949V15.0057H110.958V12.1692H112.858V7.48764H116.548V12.1692H119.578V15.0057H116.548V22.0557C116.567 22.5514 116.704 22.9094 116.961 23.1297C117.218 23.35 117.54 23.4602 117.925 23.4602C118.311 23.4602 118.687 23.3959 119.054 23.2674C119.422 23.1389 119.715 23.0287 119.936 22.9369L120.679 25.8561Z" fill="#282828"/>
<path d="M4.04821 7.04714L9.33567 22.0834L14.5681 7.04714H18.5612L11.1532 26.5997H7.49057L0.0550777 7.04714H4.04821Z" fill="#282828"/>
<path d="M12.474 7.04702L17.7615 22.0832L22.9938 7.04702H26.987L19.579 26.5996H15.9164L8.48086 7.04702H12.474Z" fill="#FF5D5D"/>
<rect x="110.741" y="30.8923" width="6.01852" height="5.50777" fill="#282828"/>
<rect x="121.574" y="30.8923" width="6.01852" height="5.50777" fill="#FF5D5D"/>
</svg>
