<svg width="36" height="36" viewBox="0 0 36 36" fill="none" xmlns="http://www.w3.org/2000/svg">
<path d="M18.1248 31.0696C15.1955 30.1994 12.7616 28.4247 10.823 25.7452C8.88532 23.0648 7.9165 20.0456 7.9165 16.6875V8.80083L18.1248 4.98729L28.3332 8.80083V17.0492C28.1144 16.9665 27.8743 16.8936 27.6128 16.8304C27.3503 16.7653 27.1043 16.7055 26.8748 16.651V9.80562L18.1248 6.55208L9.37484 9.80416V16.6875C9.37484 18.1293 9.58775 19.5099 10.0136 20.8292C10.4384 22.1494 11.0179 23.3637 11.7519 24.4721C12.4859 25.5794 13.3537 26.5468 14.355 27.3742C15.3564 28.2015 16.4249 28.833 17.5605 29.2685L17.645 29.2394C17.7627 29.531 17.9095 29.8144 18.0855 30.0896C18.2605 30.3647 18.4598 30.6228 18.6834 30.864C18.5842 30.9019 18.4909 30.9359 18.4034 30.966C18.3159 30.9962 18.223 31.0317 18.1248 31.0696ZM25.4165 31.125C23.7919 31.125 22.4133 30.5592 21.2807 29.4275C20.148 28.2958 19.5822 26.9172 19.5832 25.2917C19.5832 23.6671 20.149 22.2885 21.2807 21.1558C22.4123 20.0232 23.7909 19.4574 25.4165 19.4583C27.0411 19.4583 28.4197 20.0242 29.5523 21.1558C30.685 22.2875 31.2508 23.6661 31.2498 25.2917C31.2498 26.9162 30.684 28.2949 29.5523 29.4275C28.4207 30.5601 27.0421 31.126 25.4165 31.125ZM24.855 28.9375H25.978V25.8531H29.0623V24.7302H25.978V21.6458H24.855V24.7302H21.7707V25.8531H24.855V28.9375Z" fill="white"/>
</svg>
