<svg width="36" height="36" viewBox="0 0 36 36" fill="none" xmlns="http://www.w3.org/2000/svg">
<path d="M26.7691 6.31738C24.4176 5.03496 21.3031 4.32812 18 4.32812C14.6969 4.32812 11.5824 5.03496 9.23086 6.31738C6.77402 7.65723 5.42188 9.47559 5.42188 11.4375V24.5625C5.42188 26.5244 6.77402 28.3428 9.23086 29.6826C11.5824 30.965 14.6996 31.6719 18 31.6719C21.3004 31.6719 24.4176 30.965 26.7691 29.6826C29.2301 28.3428 30.5781 26.5244 30.5781 24.5625V11.4375C30.5781 9.47559 29.226 7.65723 26.7691 6.31738ZM29.4844 24.5625C29.4844 26.1061 28.3346 27.584 26.2455 28.7229C24.0525 29.9191 21.124 30.5781 18 30.5781C14.876 30.5781 11.9475 29.9191 9.75449 28.7229C7.66543 27.584 6.51562 26.1061 6.51562 24.5625V20.9367C7.15684 21.7475 8.07012 22.4871 9.23086 23.1242C11.5824 24.4066 14.6996 25.1135 18 25.1135C21.3004 25.1135 24.4176 24.4066 26.7691 23.1242C27.9299 22.4912 28.8432 21.757 29.4844 20.9367V24.5625ZM29.4844 18C29.4844 19.5436 28.3346 21.0215 26.2455 22.1604C24.0525 23.3566 21.124 24.0156 18 24.0156C14.876 24.0156 11.9475 23.3566 9.75449 22.1604C7.66543 21.0215 6.51562 19.5436 6.51562 18V14.3742C7.15684 15.185 8.07012 15.9246 9.23086 16.5617C11.5824 17.8441 14.6996 18.551 18 18.551C21.3004 18.551 24.4176 17.8441 26.7691 16.5617C27.9299 15.9287 28.8432 15.1945 29.4844 14.3742V18ZM26.2455 15.5979C24.0525 16.7941 21.124 17.4531 18 17.4531C14.876 17.4531 11.9475 16.7941 9.75449 15.5979C7.66543 14.459 6.51562 12.9811 6.51562 11.4375C6.51562 9.89395 7.66543 8.41602 9.75449 7.27715C11.9475 6.08086 14.876 5.42188 18 5.42188C21.124 5.42188 24.0525 6.08086 26.2455 7.27715C28.3346 8.41602 29.4844 9.89395 29.4844 11.4375C29.4844 12.9811 28.3346 14.459 26.2455 15.5979Z" fill="white"/>
</svg>
