<svg width="36" height="36" viewBox="0 0 36 36" fill="none" xmlns="http://www.w3.org/2000/svg">
<path d="M18.0044 31.125C16.1902 31.125 14.484 30.7808 12.8856 30.0925C11.2883 29.4032 9.89847 28.4679 8.71625 27.2867C7.53403 26.1064 6.59826 24.7181 5.90896 23.1217C5.21965 21.5253 4.875 19.8195 4.875 18.0044C4.875 16.1902 5.21917 14.484 5.9075 12.8856C6.59681 11.2883 7.53208 9.89847 8.71333 8.71625C9.89361 7.53403 11.2819 6.59826 12.8783 5.90896C14.4747 5.21965 16.1805 4.875 17.9956 4.875C19.8098 4.875 21.516 5.21917 23.1144 5.9075C24.7117 6.59681 26.1015 7.53208 27.2837 8.71333C28.466 9.89361 29.4017 11.2819 30.091 12.8783C30.7803 14.4747 31.125 16.1805 31.125 17.9956C31.125 19.8098 30.7808 21.516 30.0925 23.1144C29.4032 24.7117 28.4679 26.1015 27.2867 27.2837C26.1064 28.466 24.7181 29.4017 23.1217 30.091C21.5253 30.7803 19.8195 31.125 18.0044 31.125ZM18 29.6667C21.2569 29.6667 24.0156 28.5365 26.276 26.276C28.5365 24.0156 29.6667 21.2569 29.6667 18C29.6667 17.8299 29.6652 17.6583 29.6623 17.4852C29.6594 17.3122 29.6487 17.1464 29.6302 16.9879C29.5651 17.6364 29.3074 18.1731 28.8573 18.5979C28.4062 19.0218 27.8535 19.2338 27.1992 19.2338H23.4965C22.8178 19.2338 22.2369 18.9926 21.7538 18.5104C21.2706 18.0272 21.029 17.4468 21.029 16.7692V15.5383H16.0925V13.0737C16.0925 12.3961 16.3341 11.8137 16.8173 11.3267C17.3015 10.8406 17.8828 10.5975 18.5615 10.5975H19.7952V9.47458C19.7952 8.76583 20.0266 8.20826 20.4894 7.80188C20.9522 7.39451 21.5049 7.16021 22.1475 7.09896C21.4932 6.84618 20.8224 6.65562 20.135 6.52729C19.4496 6.39799 18.7379 6.33333 18 6.33333C14.7431 6.33333 11.9844 7.46354 9.72396 9.72396C7.46354 11.9844 6.33333 14.7431 6.33333 18V18.42C6.33333 18.5513 6.34306 18.6917 6.3625 18.8415H12.8958C14.2764 18.8415 15.444 19.3193 16.3988 20.275C17.3544 21.2297 17.8323 22.393 17.8323 23.7648V25.0117H14.1296V28.9929C14.7285 29.2088 15.3536 29.375 16.005 29.4917C16.6564 29.6083 17.3214 29.6667 18 29.6667Z" fill="white"/>
</svg>
