<svg width="33" height="34" viewBox="0 0 33 34" fill="none" xmlns="http://www.w3.org/2000/svg">
<path d="M10.4706 30.75C9.85646 30.75 9.33258 30.5337 8.899 30.101C8.46633 29.6683 8.25 29.1445 8.25 28.5294V5.47062C8.25 4.85646 8.46633 4.33258 8.899 3.899C9.33167 3.46633 9.85554 3.25 10.4706 3.25H22.5294C23.1435 3.25 23.6674 3.46633 24.101 3.899C24.5337 4.33167 24.75 4.85554 24.75 5.47062V10.0191H23.375V8.0625H9.625V25.9375H23.375V23.9809H24.75V28.5294C24.75 29.1435 24.5337 29.6674 24.101 30.101C23.6683 30.5337 23.1445 30.75 22.5294 30.75H10.4706ZM9.625 27.3125V28.5294C9.625 28.7402 9.713 28.9341 9.889 29.111C10.0659 29.287 10.2598 29.375 10.4706 29.375H22.5294C22.7402 29.375 22.9341 29.287 23.111 29.111C23.287 28.9341 23.375 28.7402 23.375 28.5294V27.3125H9.625ZM23.375 21.3367L23.2746 20.1996C22.9153 20.1309 22.6096 20.0209 22.3575 19.8696C22.1054 19.7184 21.884 19.5305 21.6934 19.3059L20.6938 19.8077L20.0063 18.6184L20.9055 17.9584C20.7891 17.6155 20.7309 17.2933 20.7309 16.9917C20.7309 16.6902 20.7891 16.3684 20.9055 16.0265L20.0063 15.3665L20.7103 14.1922L21.6934 14.679C21.884 14.459 22.1054 14.2747 22.3575 14.1262C22.6096 13.9777 22.9153 13.8691 23.2746 13.8004L23.375 12.6632H24.75L24.8504 13.8004C25.2097 13.8691 25.5154 13.9777 25.7675 14.1262C26.0196 14.2738 26.241 14.4581 26.4316 14.679L27.4147 14.1922L28.1188 15.3665L27.2195 16.0265C27.3359 16.3684 27.3941 16.6902 27.3941 16.9917C27.3941 17.2942 27.3359 17.616 27.2195 17.957L28.1188 18.617L27.4313 19.8077L26.4316 19.3059C26.241 19.5314 26.0196 19.7193 25.7675 19.8696C25.5154 20.0209 25.2097 20.1309 24.8504 20.1996L24.75 21.3367H23.375ZM24.0625 19.1147C24.6583 19.1147 25.1597 18.9112 25.5667 18.5042C25.9737 18.0972 26.1772 17.5958 26.1772 17C26.1772 16.4042 25.9737 15.9027 25.5667 15.4957C25.1597 15.0887 24.6583 14.8852 24.0625 14.8852C23.4667 14.8852 22.9653 15.0887 22.5583 15.4957C22.1512 15.9027 21.9478 16.4042 21.9478 17C21.9478 17.5958 22.1512 18.0972 22.5583 18.5042C22.9653 18.9112 23.4667 19.1147 24.0625 19.1147ZM9.625 6.6875H23.375V5.47062C23.375 5.25979 23.287 5.06592 23.111 4.889C22.9341 4.713 22.7402 4.625 22.5294 4.625H10.4706C10.2598 4.625 10.0659 4.713 9.889 4.889C9.713 5.06592 9.625 5.25979 9.625 5.47062V6.6875Z" fill="white"/>
</svg>
