<svg width="36" height="36" viewBox="0 0 36 36" fill="none" xmlns="http://www.w3.org/2000/svg">
<path d="M18.0002 24.3C14.5002 24.3 11.7002 21.5 11.7002 18C11.7002 14.5 14.5002 11.7 18.0002 11.7C21.5002 11.7 24.3002 14.5 24.3002 18C24.3002 21.5 21.5002 24.3 18.0002 24.3ZM18.0002 13.1C15.2702 13.1 13.1002 15.27 13.1002 18C13.1002 20.73 15.2702 22.9 18.0002 22.9C20.7302 22.9 22.9002 20.73 22.9002 18C22.9002 15.27 20.7302 13.1 18.0002 13.1Z" fill="white"/>
<path d="M19.8902 31.3H16.1102L15.0602 28.08C14.3602 27.87 13.6602 27.59 13.0302 27.24L9.9502 28.78L7.2902 26.12L8.83019 23.04C8.4802 22.41 8.2002 21.71 7.9902 21.01L4.7002 19.89V16.11L7.9202 15.06C8.1302 14.36 8.4102 13.66 8.7602 13.03L7.2202 9.95001L9.8802 7.29001L12.9602 8.83001C13.5902 8.48001 14.2902 8.20001 14.9902 7.99001L16.1102 4.70001H19.8902L20.9402 7.92001C21.6402 8.13001 22.3402 8.41001 22.9702 8.76001L26.0502 7.22001L28.7102 9.88001L27.1702 12.96C27.5202 13.59 27.8002 14.29 28.0102 14.99L31.2302 16.04V19.82L28.0102 20.87C27.8002 21.57 27.5202 22.27 27.1702 22.9L28.7102 25.98L26.0502 28.64L22.9702 27.1C22.3402 27.45 21.6402 27.73 20.9402 27.94L19.8902 31.3ZM17.0902 29.9H18.9102L19.8902 26.89L20.2402 26.82C21.0802 26.61 21.8502 26.26 22.6202 25.84L22.9702 25.63L25.7702 27.03L27.0302 25.77L25.6302 22.97L25.8402 22.62C26.2602 21.92 26.6102 21.08 26.8202 20.24L26.8902 19.89L29.9002 18.91V17.09L26.8902 16.11L26.8202 15.76C26.6102 14.92 26.2602 14.15 25.8402 13.38L25.6302 13.03L27.0302 10.23L25.7702 8.97001L22.9702 10.37L22.6202 10.16C21.8502 9.74001 21.0802 9.39001 20.2402 9.18001L19.8902 9.11001L18.9102 6.10001H17.0902L16.1102 9.11001L15.7602 9.18001C14.9202 9.39001 14.1502 9.74001 13.3802 10.16L13.0302 10.37L10.2302 8.97001L8.9702 10.23L10.3702 13.03L10.1602 13.38C9.7402 14.08 9.39019 14.92 9.18019 15.76L9.1102 16.11L6.1002 17.09V18.91L9.1102 19.89L9.18019 20.24C9.39019 21.08 9.7402 21.85 10.1602 22.62L10.3702 22.97L8.9702 25.77L10.2302 27.03L13.0302 25.63L13.3802 25.84C14.1502 26.26 14.9202 26.61 15.7602 26.82L16.1102 26.89L17.0902 29.9Z" fill="white"/>
</svg>
